<svg width="712" height="712" viewBox="0 0 712 712" fill="none" xmlns="http://www.w3.org/2000/svg">
<path d="M0.18996 355.79C-0.14004 159.56 160.82 -3.61011 363.33 0.21989C556.59 3.86989 716.43 163.64 711.78 364.96C707.35 556.75 548.77 715.96 347.92 711.74C155.29 707.69 -0.0800404 550.02 0.18996 355.79ZM701.87 356.2C701.55 165.05 548.99 13.9899 363.91 10.2899C165.41 6.31988 13.17 164.35 10.21 349.36C7.04996 546.48 163.98 698.58 349.1 701.79C547.09 705.21 701.94 545.85 701.87 356.2Z" fill="#0D0405"/>
<path d="M701.87 356.2C701.93 545.85 547.09 705.21 349.1 701.78C163.98 698.57 7.04999 546.47 10.21 349.35C13.18 164.34 165.42 6.30976 363.91 10.2798C548.99 13.9898 701.55 165.05 701.87 356.2ZM668.19 355.94C668.53 183.86 528.23 43.6298 356.2 43.8398C183.4 44.0498 43.89 183.28 43.81 355.57C43.73 528.39 182.98 667.89 355.82 668.15C528.32 668.42 668.16 528.64 668.19 355.94Z" fill="#F30405"/>
<path d="M668.19 355.94C668.16 528.64 528.32 668.42 355.82 668.16C182.98 667.9 43.73 528.4 43.81 355.58C43.89 183.29 183.4 44.0599 356.2 43.8499C528.23 43.6299 668.52 183.86 668.19 355.94ZM259.88 256.4C259.77 256.61 259.61 256.76 259.4 256.87C259.1 257.01 258.91 257.24 258.84 257.56L258.62 257.83C255.41 260.97 257.42 263.58 259.46 266.19C259.76 267.34 260.06 268.49 260.37 269.65C260.73 270.5 261.09 271.35 261.45 272.2C261.69 273.09 261.92 273.97 262.16 274.86C262.59 275.97 263.02 277.09 263.46 278.2C263.7 279.08 263.94 279.97 264.17 280.85C264.61 281.96 265.06 283.08 265.5 284.19C265.72 285.08 265.93 285.98 266.15 286.87C266.73 288.27 267.31 289.67 267.89 291.07L267.93 291.17C268.12 291.5 268.32 291.83 268.51 292.15C268.69 292.23 268.81 292.36 268.87 292.54C268.97 292.85 269.18 293.05 269.49 293.15C269.97 293.52 270.44 293.89 270.92 294.26C276.95 298.36 283.49 297.16 290.02 296.11C291.97 296.29 293.91 296.48 295.86 296.66C299.71 297.99 303.57 299.31 307.42 300.64C307.66 300.71 307.86 300.84 308.02 301.03C308.35 301.36 308.68 301.69 309.02 302.01C310.54 304.26 310.11 305.62 307.26 305.89C305.97 306.01 304.67 306.14 303.38 306.26C302.9 306.79 302.42 307.32 301.95 307.84C302 308.54 302.05 309.23 302.1 309.93C302.67 311.64 303.24 313.35 303.81 315.06C303.95 315.64 304.09 316.23 304.23 316.81C304.68 317.93 305.13 319.05 305.58 320.17C305.79 321.04 306 321.9 306.21 322.77C306.75 323.23 307.29 323.69 307.82 324.14C308.21 324.36 308.6 324.58 308.99 324.81C309.12 325.03 309.32 325.14 309.57 325.16C310.36 325.61 311.15 326.06 311.94 326.51C312.26 326.7 312.59 326.89 312.91 327.08C313.92 327.61 314.93 328.14 315.95 328.67C316.12 328.97 316.38 329.13 316.72 329.16L316.95 329.29C318.79 331.37 320.03 331.3 320.12 328.27C320.22 324.85 320.14 321.42 320.14 317.99C321.37 320.2 321.6 322.53 322.05 324.83C322.4 326.64 323.01 328.39 323.5 330.17C323.66 330.82 323.82 331.46 323.99 332.11C324.77 332.65 325.55 333.2 326.33 333.74C326.87 333.92 327.41 334.09 327.96 334.27C328.31 334.52 328.66 334.77 329.01 335.02C330.34 335.52 331.66 336.02 332.99 336.53C335.61 337.43 335.85 337.36 336.01 334.43C336.16 331.51 336.04 328.57 336.04 325.64C336.7 325.65 337.36 325.67 338.03 325.68C338.03 328.68 337.82 331.7 338.12 334.66C338.27 336.16 339.33 337.56 339.98 339.01C340.36 339.24 340.75 339.47 341.13 339.7C341.37 339.93 341.65 340.04 341.97 340.03C342.64 340.15 343.3 340.28 343.97 340.4C345.95 344.77 350.26 342.51 353.36 343.71C353.92 341.62 354.84 339.55 354.96 337.44C355.22 333.02 355.06 328.57 355.07 324.14C357.8 323.45 358.05 325.11 358.05 327.17C358.03 332.09 358.08 337.01 358.1 341.93C358.35 342.2 358.6 342.46 358.85 342.73C359.93 342.54 361 342.34 362.08 342.15C365.55 341.37 369.03 340.6 372.48 339.74C372.55 339.72 372.36 338.64 372.29 338.06C372.38 337.38 372.47 336.71 372.55 336.03C373.41 336 374.26 335.98 375.12 335.95C376.05 336.12 376.97 336.28 377.9 336.45C378.62 336.32 379.33 336.2 380.05 336.07C381.4 335.47 382.75 334.86 384.11 334.26C384.38 334.06 384.68 333.97 385.01 333.98C385.36 333.8 385.72 333.61 386.07 333.43C386.6 333.2 387.13 332.98 387.67 332.75C390.14 331.55 392.62 330.36 395.09 329.16C395.56 328.95 396.02 328.74 396.49 328.54C399.02 327.05 401.54 325.56 404.07 324.07C404.45 323.72 404.83 323.37 405.2 323.01C407.12 318.35 409.09 313.71 410.86 308.99C411.03 308.54 409.87 307.59 409.32 306.88L409.17 306.74C408.47 306.47 407.76 306.2 407.06 305.93C405.4 305.37 403.74 304.81 402.08 304.25C402.95 302.89 403.74 301.46 404.74 300.19C405.06 299.78 405.94 299.81 406.56 299.64C410.09 298.6 413.62 297.55 417.15 296.51C423.45 296.34 429.75 296.16 436.05 295.99C437.08 295.73 438.12 295.47 439.15 295.21L439.32 295.11C439.63 295.08 439.87 294.94 440.04 294.68C441.09 293.8 442.14 292.92 443.19 292.04C445.01 290.05 447.91 288.49 446.05 284.99C446.22 284.36 446.39 283.73 446.57 283.1C446.94 282.23 447.31 281.36 447.68 280.49C447.96 279.36 448.25 278.22 448.53 277.09C448.99 275.99 449.45 274.89 449.91 273.79C450.05 273.2 450.18 272.6 450.32 272.01C454.4 266.86 455.55 261.27 453.2 257.94L453.12 257.82C452.89 257.53 452.67 257.24 452.44 256.95C451.99 256.59 451.54 256.22 451.09 255.86C449.63 254.98 448.17 254.09 446.72 253.21C446.18 252.77 445.65 252.32 445.11 251.88C444.2 250.22 443.3 248.56 442.39 246.9C442.42 244.3 442.45 241.69 442.48 239.09C443.01 237.06 443.54 235.03 444.08 233C444.3 232.04 444.52 231.08 444.74 230.12C445.18 228.75 445.63 227.37 446.07 226C446.18 225.36 446.3 224.72 446.41 224.09C446.96 222.06 447.51 220.03 448.06 218C448.16 217.36 448.27 216.72 448.37 216.08C448.94 213.72 449.5 211.36 450.07 209C450.15 208.33 450.22 207.67 450.3 207C450.9 203.67 451.51 200.34 452.11 197.01C452.2 196.01 452.29 195.01 452.38 194.01C452.95 189.34 453.53 184.67 454.1 180C454.27 175.36 454.43 170.73 454.6 166.09C454.61 163.35 454.62 160.61 454.64 157.87C454.47 155.23 454.31 152.6 454.14 149.96C453.64 147.93 453.14 145.89 452.64 143.86C452.41 142.95 452.17 142.04 451.94 141.13C450.37 137.73 448.8 134.32 447.24 130.92C446.85 130.25 446.46 129.59 446.07 128.92C445.83 128.59 445.59 128.27 445.35 127.94C443.2 125.03 441.04 122.13 438.89 119.22C437.93 118.15 436.98 117.07 436.02 116C435.35 115.33 434.69 114.66 434.02 113.99C433.35 113.34 432.68 112.69 432.01 112.03C430.88 111.11 429.75 110.19 428.61 109.27C428.36 109.21 428.18 109.07 428.07 108.84C427.75 108.54 427.43 108.24 427.11 107.94L427.08 107.91C425.92 107.04 424.75 106.16 423.59 105.29C422.41 104.5 421.24 103.72 420.06 102.93C419.06 102.28 418.06 101.63 417.06 100.97L417.04 100.96C414.27 99.3699 411.49 97.7799 408.72 96.1899C407.81 95.8499 406.9 95.5099 405.99 95.1699C405.83 94.9799 405.63 94.8699 405.38 94.8499L405.17 94.7199C403.36 93.8699 401.56 93.0199 399.75 92.1699C398.89 91.9499 398.02 91.7199 397.16 91.4999C396.08 91.0299 394.99 90.5499 393.91 90.0798C393.32 89.9398 392.72 89.8099 392.13 89.6699C390.44 89.0899 388.75 88.5099 387.06 87.9399C386.09 87.7199 385.13 87.4899 384.16 87.2699C380.75 84.4799 377.01 84.3299 373.06 85.9199C361.71 85.8999 350.37 85.8799 339.02 85.8699C334.71 84.2799 330.68 84.7899 326.94 87.4799C326.3 87.6099 325.66 87.7398 325.02 87.8598C323.02 88.4898 321.02 89.1299 319.03 89.7599C316.76 90.5399 314.5 91.3298 312.23 92.1098C311.14 92.6298 310.06 93.1499 308.97 93.6699C308.7 93.8799 308.39 93.9799 308.05 93.9899C307.71 94.1499 307.37 94.3099 307.03 94.4799C303.39 96.3299 299.74 98.1799 296.1 100.03C295.74 100.27 295.38 100.52 295.01 100.76C293.88 101.48 292.75 102.2 291.62 102.93C291.35 102.97 291.15 103.12 291.02 103.36C289.7 104.24 288.38 105.13 287.06 106.01C286.71 106.28 286.36 106.54 286.01 106.81C285.87 107.04 285.67 107.18 285.4 107.24C284.28 108.17 283.17 109.09 282.05 110.02C279.34 112.66 276.63 115.3 273.92 117.95C273.3 118.64 272.67 119.33 272.05 120.01C271.43 120.75 270.81 121.49 270.19 122.23C269.77 122.81 269.35 123.4 268.94 123.98C268.66 124.36 268.39 124.73 268.11 125.11C267.7 125.73 267.3 126.35 266.89 126.98C266.62 127.34 266.36 127.71 266.09 128.07C265.02 130.03 263.94 131.99 262.87 133.95C262.33 135.06 261.8 136.18 261.26 137.29C261.04 137.83 260.82 138.36 260.59 138.9C259.74 141.6 258.89 144.3 258.04 147.01C257.85 148.31 257.65 149.61 257.46 150.91C257.25 153.94 257.04 156.97 256.82 160C256.82 162.34 256.82 164.68 256.82 167.02C257.09 170.71 257.37 174.41 257.64 178.1C257.74 180.41 257.85 182.72 257.95 185.03C256.15 189.04 257.19 192.67 259.47 196.12C259.62 197.42 259.78 198.73 259.93 200.03C260.52 203.05 261.11 206.07 261.7 209.09C261.77 209.74 261.85 210.38 261.92 211.03C262.44 213.06 262.97 215.09 263.49 217.12C263.65 218.09 263.82 219.05 263.98 220.02C264.48 221.72 264.98 223.42 265.48 225.13C265.61 225.77 265.73 226.41 265.86 227.05C266.4 228.74 266.94 230.44 267.47 232.13C267.61 232.77 267.75 233.4 267.89 234.04C267.29 240.05 266.68 246.06 266.08 252.07L266.09 252.06C264.73 253.03 263.37 253.99 262.01 254.96C261.58 255.27 261.15 255.58 260.72 255.89C260.42 256.05 260.15 256.23 259.88 256.4ZM110 283C109.34 282.33 108.67 281.66 108 280.98C107.68 280.65 107.36 280.32 107.04 279.99C107.86 275.98 112.01 271.68 106.55 268.13C104.21 266.61 101.32 265.93 97.94 264.58C97.46 263.04 96.67 260.52 95.87 258C96.01 257.18 96.15 256.36 96.29 255.54C98.13 253.93 101.04 252.59 101.53 250.64C102.16 248.1 101.58 243.12 100.26 242.63C95.65 240.93 97.21 238.36 98.05 235.57C98.62 233.68 99.23 231.8 99.82 229.91L99.92 229.81C102.52 229.58 105.78 230.21 107.55 228.88C109.58 227.35 112 223.26 111.26 221.72C109.15 217.32 112.01 215.53 114.05 213.04L114.04 213.05C116.06 212.31 118.09 211.57 120.11 210.82L120.18 210.9C121.33 211.44 122.81 212.73 123.58 212.39C126.2 211.25 128.57 209.53 131.03 208.03C132.62 206.68 134.21 204.17 135.8 204.17C142.56 204.19 149.37 204.59 156.08 205.52C165.19 206.78 172.5 212.2 180.01 217.01C180.35 217.33 180.69 217.65 181.03 217.98C181.36 218.31 181.69 218.64 182.02 218.97L182.03 218.98C182.69 219.66 183.34 220.33 184 221.01C186.21 224.1 188.42 227.2 190.64 230.29L190.85 229.96L190.66 230.3C192.4 234.75 194.4 239.11 195.82 243.66C198.13 251.05 200.05 258.56 202.14 266.01C202.22 266.65 202.29 267.29 202.37 267.92C202.92 271.15 203.06 274.51 204.09 277.58C206.86 285.8 210 293.88 213 302.02C215.13 307.66 218.74 312.05 224.02 315.01C226.03 316.34 228.03 317.66 230.04 318.99C231.38 319.92 232.63 321.03 234.08 321.75C243.75 326.52 253.68 330.82 263.1 336.04C272.66 341.34 282.24 339.64 292.03 337.83C292.66 337.77 293.3 337.71 293.93 337.64C295.2 337.47 296.48 337.36 297.74 337.12C301.71 336.37 303.23 334.68 300.56 330.77C298.46 327.69 296.82 324.3 294.97 321.05L294.96 321.03C290.94 309.38 289.73 308.48 277.89 308.25C274.72 308.19 271.54 308.31 268.4 307.96C263 307.36 257.63 306.47 252.24 305.7L252.3 305.76C251.87 305.17 251.44 304.57 251.01 303.98L251.02 303.99C248.36 298 245.71 292.01 243.05 286.02L243.04 286.03C244.04 284.69 245.05 283.36 246.05 282.02L246.04 282.03C246.48 281.44 246.91 280.86 247.35 280.27L247.27 279.97L247.37 280.27C246.93 276.62 246.81 272.88 245.88 269.36C245.51 267.94 243.54 266.49 241.99 265.92C239.54 265.02 235.78 266.2 235.45 262.22C235.03 257.16 229.11 252.21 234.98 246.98C237.37 244.39 235.84 233.02 232.88 231.66C232.32 231.4 231.53 231.26 230.97 231.44C226.12 233.03 224.52 230.24 223.5 226.24C223.16 224.9 222.05 223.76 221.3 222.53C221.32 222.3 221.23 222.12 221.02 222.01C222.53 217.64 223.78 213.32 218.98 210.02L218.97 210.01C216.49 203.75 216.32 203.68 210 206.11C209.48 206 208.97 205.88 208.45 205.77C206.38 203.28 204.28 200.81 202.24 198.29C201.36 197.2 199.76 195.88 199.93 194.9C200.64 190.71 197.98 189.27 195 188.04C192.05 186.82 189.07 185.51 185.98 184.85C183.49 184.31 180.78 184.87 178.22 184.58C175.45 184.27 172.73 183.54 169.99 183C169.87 182.37 169.75 181.74 169.64 181.11C167.77 180.78 165.9 180.45 164.04 180.12C158.38 180.15 152.71 180.18 147.05 180.2C145.63 180.51 144.12 180.58 142.81 181.15C127.71 187.7 112.54 194.11 97.64 201.11C94.16 202.75 90.6 205.96 88.92 209.36C85.49 216.32 83.26 223.87 80.63 231.21C75.9 244.42 72.27 257.81 74.33 272.07C74.34 278.68 74.35 285.29 74.36 291.91C74.9 293.28 75.44 294.65 75.99 296.02C76.31 296.56 76.49 297.39 76.96 297.61C83.96 300.78 91 303.88 98.03 306.99C99.68 308.01 101.33 309.03 102.98 310.05L102.97 310.04C104.63 311 106.37 312.91 107.94 312.77C115.32 312.13 122.65 310.93 130.01 309.92C130.65 309.8 131.29 309.69 131.93 309.57C137.05 307.49 142.17 305.41 147.29 303.32L147.13 303.02L147.27 303.32C148.33 302.64 149.39 301.96 150.45 301.28C150.69 301.29 150.87 301.19 150.98 300.98C151.8 300.42 152.63 299.85 153.45 299.29C153.69 299.28 153.86 299.16 153.96 298.94C154.72 298.38 155.48 297.82 156.24 297.26L156.12 297L156.2 297.27C157.63 296.26 159.07 295.25 160.5 294.23C160.71 294.26 160.87 294.19 160.96 293.99C162.3 292.99 163.64 291.98 164.98 290.98C166.64 289.64 168.3 288.3 169.96 286.96C176.3 283.16 176.93 281.75 175.25 274.01C174.14 275.48 173.32 276.57 172.49 277.66C172.25 277.71 172.09 277.85 172 278.07C169.67 279.05 167.34 280.03 165.01 281.01L165 281.02C164.23 281.55 163.45 282.08 162.68 282.62L162.61 282.69C162.19 283.31 161.52 283.89 161.39 284.57C160.38 289.65 155.14 292.58 150.26 290.72L150 290.77L150.26 290.76C149.8 287.47 147.81 288.03 145.5 288.67C139.72 290.28 134.69 295.02 128.01 292.91C127.87 290.97 127.74 289.04 127.6 287.1C123.88 282.85 120.55 282.4 116.29 285.04C115.26 285.68 113.42 285.03 111.96 284.98C111.63 284.65 111.31 284.32 110.98 283.99C110.68 283.67 110.34 283.33 110 283ZM505.02 204.01C504.38 204.7 503.74 205.38 503.11 206.06C502.74 206.07 502.36 206.09 501.99 206.1C499.9 206 496.67 205.02 495.93 205.97C493.36 209.25 489.4 213.79 490.16 216.77C491.37 221.45 489.06 224.28 488.2 227.93C487.41 231.29 485.52 232.38 482.45 231.64C479.51 230.93 478.11 231.94 477.61 234.88C477.16 237.49 476.06 240.01 475.82 242.62C475.68 244.17 476.14 246.55 477.2 247.28C480.57 249.6 480.57 252.1 479.01 255.41C478.11 257.33 478.21 259.77 477.15 261.55C476.13 263.24 474.09 265.64 472.66 265.54C465.01 264.99 466.34 271.44 464.56 275.33C462.78 279.21 464.62 282 468 284.01C467.94 286.53 468.27 289.13 467.72 291.54C467.15 294.07 465.76 296.41 464.73 298.83L464.91 299.05L464.75 298.82C462.5 301.55 460.25 304.29 457.99 307.02C455.99 307.42 453.99 307.81 451.98 308.21C450.01 308.26 448.03 308.31 446.06 308.36C440.8 308.38 435.54 308.6 430.29 308.37C423.35 308.07 420.41 312.06 419.06 318.06L419.04 318.08C417.58 320.97 416.12 323.87 414.66 326.76L414.98 326.79L414.66 326.73C412.99 329.42 411.31 332.11 409.12 335.63C414.14 336.78 417.94 337.89 421.81 338.5C432.77 340.23 443.3 340.37 453.41 334C461.08 329.17 469.77 325.98 477.9 321.85C481.1 320.22 483.98 317.99 487.01 316.03V316.04C490.33 312.69 493.64 309.33 496.96 305.98C497.18 305.89 497.28 305.72 497.28 305.49C500.19 299.26 503.88 293.25 505.83 286.73C508.62 277.38 509.58 267.49 512.33 258.13C515.41 247.67 519.61 237.55 523.33 227.28L523.34 227.3C524.33 225.96 525.31 224.61 526.3 223.27L526.18 222.99L526.27 223.28C526.6 222.94 526.92 222.6 527.25 222.27L527.29 222.28C529.97 219.68 532.65 217.09 535.33 214.49L535.38 214.41C537.22 213.25 539.06 212.1 540.9 210.94L540.93 210.92C548.28 208.55 555.63 206.18 562.98 203.81C563.62 203.76 564.27 203.72 564.91 203.67C569.98 204.1 575.06 204.53 580.13 204.95C580.18 205.6 580.23 206.24 580.28 206.89C582.69 208.58 584.97 210.56 587.59 211.82C588.66 212.34 590.48 211.3 591.95 210.97L591.96 210.96C593.63 211.31 595.3 211.67 596.97 212.02L596.96 212.01C597.32 212.31 597.68 212.61 598.03 212.91L598.07 212.94C599.95 215.47 603.9 217.23 601.07 221.53C600.81 221.93 602.08 223.33 602.65 224.28C603.87 227.92 604.72 231.85 610.27 230.23C611.04 230.01 612.86 231.82 613.51 233.06C614.64 235.22 615.25 237.67 616.07 240C616.04 240.34 616.01 240.68 615.99 241.02C612 241.48 610.38 243.54 610.78 247.69C611.08 250.86 610.66 253.97 614.61 255.31C615.43 255.59 615.82 257.12 616.41 258.08C616.32 258.72 616.24 259.36 616.15 260C614.49 261.88 616.13 265.94 611.58 266.04C604.64 266.19 602.01 270.62 604.51 276.98C604.95 278.1 604.66 279.5 604.71 280.78V280.73C604.05 281.4 603.4 282.07 602.73 282.74C601 283.92 599.26 285.11 597.53 286.29C597.53 285.86 597.53 285.43 597.53 285.01C595.04 284.54 592.5 283.5 590.08 283.73C584.45 284.25 583.41 288.23 584.11 293.07L584.06 293.12C580.68 293.12 577.31 293.13 573.93 293.13L573.87 293.07C572.74 288.37 568.07 289.92 565.15 288.45C564.5 288.12 562.38 290.71 560.93 291.96L560.95 291.94C557.58 290 552.76 288.81 551.28 285.91C549.95 283.29 548.84 281.18 546.37 279.84C543.16 278.09 539.87 276.49 536.61 274.83C536.18 274.95 535.75 275.06 535.31 275.18C536.35 277.96 537.4 280.74 538.44 283.51C539.12 284.19 539.79 284.87 540.47 285.56C542.5 287.19 544.53 288.83 546.56 290.46C546.93 290.76 547.3 291.06 547.67 291.36C548.63 292.03 549.59 292.7 550.55 293.37L550.66 293.44C550.93 293.85 551.12 294.35 551.48 294.66C566.35 307.5 583.86 312.92 603.24 312.88C604.84 312.88 606.44 311.7 608.04 311.06L608.03 311.07C616.93 306.72 625.91 302.5 634.67 297.88C636.26 297.05 637.91 294.62 637.96 292.88C638.21 284.6 637.91 276.31 637.81 268.02C637.77 263.38 637.73 258.73 637.69 254.09C635.77 247.4 633.85 240.71 631.94 234.03C631.83 233.39 631.72 232.75 631.61 232.11C629.7 226.42 627.78 220.74 625.87 215.05C625.58 214.38 625.28 213.71 624.99 213.04C623.66 210.69 622.34 208.35 621.01 206L621.02 206.01C620.12 204.91 619.45 203.32 618.29 202.79C612.26 200.05 606.1 197.58 599.99 195.02H600C591.87 191.28 583.79 187.44 575.6 183.86C572.18 182.37 568.53 181.43 564.98 180.24C559.32 180.21 553.66 180.18 548 180.15C545.57 179.75 543.95 180.06 541.58 181.92C538.34 184.46 532.69 186.87 529.34 185.7C522.91 183.46 519.42 187.46 514.94 189.6C513.98 190.06 513.41 191.52 512.87 192.63C511.84 194.73 510.97 196.91 510.04 199.05L510.02 199.07C509.67 199.38 509.31 199.69 508.96 200L508.97 199.98C507.97 200.99 506.97 201.99 505.97 203L505.98 202.99C505.66 203.32 505.34 203.67 505.02 204.01ZM116.97 476.93C113.21 472.72 109.89 469.28 107 465.53C106.34 464.67 106.95 462.64 107.3 461.23C107.85 459.05 109.91 456.21 109.15 454.95C106.98 451.34 106.7 445.45 100.1 445.82C98.88 445.89 97.08 443.95 96.39 442.53C95.64 440.98 96.09 438.89 95.62 437.14C94.6 433.35 93.96 429.89 98.72 428.08C99.29 427.86 99.85 426.78 99.86 426.09C99.95 422.09 101.19 417.4 99.54 414.26C96.98 409.4 98.91 405.88 100.7 402.17C112.76 377.18 133.24 363.27 160.02 358.18C163.97 357.43 168.67 357.39 172.32 358.82C199.57 369.47 226.81 380.19 253.7 391.69C265.58 396.77 276.39 398.44 288.48 392.21C305.48 383.44 322.99 375.66 340.42 367.75C345.56 365.42 343.83 361.31 344.26 357.6C344.66 354.17 343.07 352.6 339.99 351.38C333.66 348.85 327.44 346.02 321.31 343.03C318.37 341.6 316.17 341.98 313.52 343.79C304.87 349.71 296.06 355.4 287.26 361.09C285.18 362.44 282.94 363.63 280.63 364.53C277.29 365.83 274.49 364.63 274.82 360.94C275.39 354.62 270.76 352.91 266.85 350.23C264.37 348.53 262.46 348.77 260.17 350.62C255.8 354.15 246.7 350.77 245.24 345.23C244.12 340.98 237.76 334.97 233.72 334.58C232.89 334.5 231.92 335.13 231.13 335.62C226.07 338.76 219.41 336.59 216.74 330.88C215.1 327.37 204.05 325.66 201.89 328.89C199.93 331.82 198.12 331.27 195.25 330.66C183.57 328.18 171.83 324.7 160.03 324.33C142.46 323.78 124.78 325.15 107.21 326.46C94.62 327.4 83.6 332.34 78.7 345.03C75.67 352.87 73.67 361.2 72.11 369.49C68.5 388.67 69.18 407.98 72.18 427.16C75.62 449.15 80.63 470.92 93.66 489.38C103.9 503.89 116 517.08 127.11 530.99C129.76 534.3 132.67 535.24 136.69 534.43C151.53 531.44 166.42 528.7 181.23 525.58C183.02 525.2 185.02 523.4 185.92 521.72C189.21 515.57 192.31 509.28 195.06 502.87C203.72 482.7 212.38 462.52 220.56 442.15C222.07 438.38 222.63 433.26 221.35 429.54C218.84 422.21 214.8 415.39 211.24 408.43C210.48 406.94 209.05 405.79 207.61 404.11C207.47 406.64 207.49 408.42 207.24 410.17C206.64 414.33 205.77 418.45 205.3 422.62C205.01 425.17 206.01 427.06 208.99 427.57C209.99 427.74 211.54 428.99 211.58 429.81C211.73 433.12 211.56 436.47 211.12 439.76C211 440.63 209.38 442.08 208.64 441.97C204.51 441.36 203.44 443.9 202.82 447.06C202.12 450.65 199.65 454.23 202.88 457.87C203.2 458.23 202.82 459.5 202.43 460.15C200.51 463.4 198.47 466.59 196.51 469.74C188.66 465.91 188.56 465.81 182.17 472.33C180.94 473.59 179.97 476.36 180.51 477.86C181.99 481.97 180.25 483.32 176.74 484.11C175.3 484.44 173.91 485.09 172.56 485.74C169.35 487.26 166.91 487.18 165.6 483.22C164.44 479.7 162.1 478.3 158.28 479.6C156.59 480.17 154.59 479.8 152.86 480.29C151.78 480.59 150.44 481.5 150.04 482.48C147.54 488.6 146.74 489.12 140.18 487.97C136.15 487.27 133.2 485.69 134.05 480.79C134.65 477.3 133.14 475.45 129.79 474.08C125.04 472.12 120.7 470.3 116.97 476.93ZM513.07 331.89C506.75 325.17 499.51 325.79 494.72 333.1C493.05 335.66 484.59 338.02 482.28 336.57C478.36 334.12 467.72 337.58 467.38 342.08C466.94 348.03 462.81 349.85 458.81 351.92C457.33 352.69 454.4 352.61 453.21 351.62C450.11 349.03 447.5 347.97 444.09 350.93C441.48 353.2 437.6 353.85 437.42 358.7C437.16 365.38 434.82 366.45 428.78 363.51C427.29 362.78 425.89 361.85 424.5 360.94C415.88 355.28 407.22 349.66 398.68 343.88C395.95 342.03 393.6 341.52 390.43 343.13C384.5 346.14 378.4 348.85 372.2 351.25C368.9 352.53 367.39 354.24 367.75 357.84C368.12 361.63 366.73 365.54 371.86 367.86C390.97 376.49 409.9 385.53 428.89 394.43C435.95 397.74 443.18 397.68 450.2 394.8C474.2 384.97 498.03 374.75 522.08 365.03C534.04 360.2 545.69 355.68 559.62 359.74C584.71 367.05 602.46 381.81 612.65 405.69C613.52 407.74 612.71 410.52 612.62 412.97C612.47 417.27 611.93 421.6 612.28 425.85C612.4 427.31 615.85 428.59 615.84 429.94C615.8 435.15 614.99 440.35 614.38 445.55C614.36 445.74 613.46 446.03 613.04 445.94C607.22 444.69 605.98 449.39 603.64 452.9C601.67 455.86 601.56 458.15 604.2 460.82C605.15 461.78 605.75 464.53 605.1 465.39C602.16 469.27 598.7 472.76 594.89 477C590.82 469.4 586.19 472.82 581.48 474.37C576.9 475.89 578.42 479.49 577.82 482.56C577.5 484.19 576.21 486.25 574.8 486.9C572.63 487.91 569.98 487.89 567.53 488.28C564.24 488.81 562.39 487.44 562.31 484.07C562.24 481.04 560.59 480.08 557.83 480.01C556.01 479.97 554.14 479.78 552.4 479.29C549.55 478.5 547.78 479.62 546.99 482.17C545.44 487.22 542.35 487.36 538.31 485.29C537.13 484.69 535.85 484.25 534.56 483.92C531.37 483.1 530.22 481.55 531.38 478.1C531.89 476.58 531.42 474.03 530.38 472.85C528.12 470.27 525.2 468.25 522.51 465.97C520.13 467.33 518.01 468.55 515.63 469.91C514.22 467.68 512.97 465.73 511.75 463.77C510.05 461.03 508.45 458.97 510.32 454.86C511.62 452.01 509.19 447.23 507.81 443.55C507.45 442.59 504.73 442.56 503.12 442.03C502.38 441.78 501.15 441.4 501.1 440.98C500.7 437.19 500.23 433.35 500.48 429.58C500.54 428.65 503.22 427.95 504.62 427.04C505.26 426.62 506.18 425.96 506.21 425.38C506.4 421.26 506.74 417.1 506.32 413.02C506.04 410.3 504.61 407.69 503.63 404.87C502.86 405.8 501.47 407.03 500.66 408.57C497.58 414.46 494.78 420.49 491.7 426.38C489.02 431.51 489.08 436.82 491.23 441.85C502.63 468.44 514.19 494.96 525.9 521.42C526.7 523.23 528.99 525.18 530.91 525.59C545.71 528.74 560.57 531.66 575.47 534.28C577.95 534.72 581.88 534.27 583.24 532.64C595.71 517.7 608.51 502.96 619.7 487.08C630.69 471.49 635.1 452.94 638.53 434.36C643.65 406.68 643.9 379.12 636 351.81C632.02 338.06 623.57 329.18 609.05 327.14C599.83 325.85 590.56 324.64 581.27 324.17C558.08 322.99 534.98 323.32 513.07 331.89ZM396.07 481.58C392.69 482.21 390.25 482.39 387.99 483.13C378.04 486.38 371.06 493.54 364.89 501.5C363.31 503.53 362.19 506.5 362.16 509.06C361.94 527.89 362.03 546.72 362.06 565.56C362.06 567.37 361.99 569.34 362.61 570.98C367.28 583.24 372 595.5 377.05 607.61C377.8 609.42 380.11 611.19 382.06 611.79C396.05 616.1 410.27 619.71 424.13 624.38C430.03 626.37 434.56 625.35 439.65 622.62C457.17 613.2 472.25 600.78 485.52 586.11C495.22 575.38 504.84 564.57 514.15 553.51C517.29 549.78 518.98 545.03 517.07 539.96C508.95 518.33 501.19 496.55 492.44 475.18C487.3 462.63 480.64 450.7 474.42 438.62C473.53 436.88 470.58 434.34 469.77 434.72C464.55 437.16 461.42 432.81 457.49 431.41C456.36 431.01 454.96 428.8 455.15 427.66C455.96 422.87 453.11 421.52 449.43 420.69C446.28 419.98 441.62 417.68 440.21 418.95C434.96 423.67 430.69 420.25 425.97 418.88C422.93 418 421.45 416.3 422 413.1C422.58 409.68 420.95 407.82 417.83 406.81C416.26 406.3 414.74 405.53 413.3 404.71C410.03 402.84 407.34 402.77 404.5 405.88C403.57 406.9 400.51 407.11 399.09 406.39C390.52 402.01 384.28 394.91 379.71 386.73C375.39 378.98 367.68 379.14 360.75 375.92C360.75 390.77 360.71 404.72 360.83 418.67C360.84 419.84 361.73 421.16 362.55 422.13C368.43 429.15 374.34 436.14 380.39 443.01C381.52 444.29 383.21 445.53 384.83 445.87C398.35 448.69 411.84 451.75 425.48 453.82C440.3 456.07 452.6 462.21 462.41 473.62C476.64 490.17 487.18 508.04 483.86 531.04C483.53 533.33 481.77 535.42 480.61 537.57C478.26 541.91 473.06 547.09 474.07 550.38C476.12 557.05 471.32 559.36 469.08 563.27C468.57 564.16 465.96 564.56 464.65 564.15C459.73 562.58 451.64 568.68 451.97 573.87C452.05 575.06 451.83 577.05 451.12 577.39C447.18 579.29 443.06 580.8 439 582.44C439.15 581.77 439.3 581.1 439.46 580.43C437.06 578.72 434.83 575.95 432.23 575.55C427.68 574.84 422.01 573.26 420.13 580.44C419.9 581.33 417.66 582.29 416.43 582.2C414.15 582.04 411.95 580.9 409.66 580.58C406.34 580.11 405.71 578.45 406.29 575.39C406.58 573.85 406.36 571.56 405.39 570.54C400.22 565.13 398.24 565 391.94 568.73C391.54 568.97 391.01 568.99 390.14 569.21C388.3 567.01 386.53 564.6 384.45 562.48C381.74 559.71 381.45 557.51 384.53 554.6C385.61 553.58 385.73 550.54 385.07 548.92C383.92 546.1 383.86 542.12 379.28 541.69C377.42 541.51 374.07 540.3 374.09 539.64C374.21 535.81 371.67 531.47 375.92 528.17C379.96 525.04 380.35 516.95 377.22 512.88C376.41 511.83 375.95 509.55 376.54 508.57C378.17 505.88 380.22 503.35 382.54 501.23C384.16 499.74 387.35 499.53 388.33 497.87C391.15 493.02 393.21 487.76 396.07 481.58ZM351.02 375.72C343.44 379.04 335.63 379.49 331.36 387.36C327.11 395.18 320.96 401.55 313.21 406.26C310.35 408 308.01 408.28 305.89 405.38C304.07 402.89 301.91 402.85 299.35 404.22C297.3 405.32 294.87 405.84 293.07 407.22C291.63 408.32 290.75 410.26 289.87 411.96C288.84 413.94 288.52 417.43 287.14 417.87C282.65 419.28 278.49 424.42 272.97 419.82C271.74 418.8 269.34 418.54 267.65 418.86C264.91 419.38 262.12 420.34 259.72 421.74C258.23 422.61 256.74 424.54 256.45 426.2C255.78 430.16 248.35 436.25 244.36 435.54C239.89 434.75 237.37 436.57 236.03 441.05C235.13 444.04 234.11 447.1 232.51 449.75C216.39 476.44 205.62 505.36 195.85 534.81C192.74 544.19 194.69 551.45 200.7 558.22C210.42 569.17 220.13 580.14 230.3 590.67C243.68 604.53 258.65 616.43 276.3 624.52C278.5 625.53 281.52 625.86 283.85 625.27C292.39 623.1 300.76 620.31 309.25 617.93C333.48 611.16 333.79 611.32 341.12 593.26C344.53 584.86 348.28 575.98 348.8 567.13C349.95 547.53 349.19 527.82 349.09 508.16C349.08 506.27 348.78 503.81 347.61 502.61C342.05 496.94 336.5 491.15 330.22 486.34C326.51 483.5 321.77 481.23 316.88 482.19C317.6 485.35 317.66 488.47 319.02 490.85C321.17 494.61 324.02 500.61 326.88 500.78C333.47 501.19 332.91 506.58 335.56 509.58C335.96 510.03 335.47 512 334.81 512.51C331.98 514.68 330.56 517.16 332.19 520.61C333.48 523.33 335.48 525.81 336.25 528.65C337.24 532.28 337.54 536.16 337.53 539.93C337.53 540.53 334.31 541.68 332.62 541.62C328.31 541.47 328.11 544.88 326.98 547.47C325.96 549.81 324.03 552.31 326.99 554.63C330.42 557.33 329.52 559.86 326.98 562.57C325.62 564.02 324.42 565.64 323.26 567.27C321.78 569.35 320.08 569.66 318.3 567.88C315.16 564.75 312.68 565.83 309.2 567.93C304.37 570.84 304.44 574.51 305.94 579.17C303.54 579.96 301.54 580.71 299.49 581.27C297.28 581.87 295.03 582.3 292.7 582.83C292.04 581.68 291.3 580.88 291.09 579.96C290.03 575.32 287 574.42 282.82 575.22C281.53 575.47 280.04 574.95 278.86 575.39C277.3 575.96 275.01 576.88 274.69 578.08C273.41 582.86 270.9 582.19 267.63 580.46C265.88 579.53 264 578.75 262.1 578.2C259.75 577.52 258.95 576.45 259.49 573.86C260.37 569.63 251.63 561.82 247.97 563.83C244.07 565.97 242.57 564.14 240.91 561.41C239.38 558.9 236.1 555.74 236.72 553.94C239.5 545.85 233.55 542 229.82 536.97C229.17 536.09 228.19 535.15 228.14 534.2C227.8 528.07 227.13 521.89 227.6 515.81C228.8 500.48 237.26 488.47 246.46 476.89C254.99 466.16 265.19 457.97 279.02 455.27C291.92 452.75 304.81 450.17 317.75 447.89C324.75 446.66 331.29 445.17 335.36 438.41C337.14 435.46 339.59 432.79 342.15 430.44C349.27 423.93 352.09 416.28 351.23 406.48C350.34 396.6 351.02 386.58 351.02 375.72Z" fill="#040000"/>
<path d="M295.82 296.65C293.87 296.47 291.93 296.28 289.98 296.1C288.22 295.83 286.47 295.46 284.7 295.31C280.1 294.91 275.49 294.6 270.88 294.25C270.4 293.88 269.93 293.51 269.45 293.14C269.24 292.94 269.04 292.73 268.83 292.53C268.76 292.35 268.64 292.22 268.47 292.14C268.28 291.81 268.08 291.48 267.89 291.16L267.85 291.06C267.27 289.66 266.69 288.26 266.11 286.86C265.89 285.97 265.68 285.07 265.47 284.18C265.03 283.07 264.58 281.95 264.14 280.84C263.9 279.96 263.66 279.07 263.43 278.19C263 277.08 262.57 275.96 262.13 274.85C261.89 273.96 261.66 273.08 261.43 272.19C261.07 271.34 260.71 270.49 260.35 269.64C260.05 268.49 259.75 267.34 259.44 266.18C259.16 263.39 258.88 260.61 258.6 257.82C258.6 257.82 258.82 257.55 258.83 257.55C259.02 257.32 259.2 257.09 259.39 256.86C259.6 256.76 259.76 256.6 259.87 256.4C260.14 256.23 260.42 256.05 260.69 255.88C261.12 255.57 261.55 255.26 261.98 254.95C263.34 253.99 264.7 253.02 266.06 252.05L266.05 252.06C270.84 247.92 271.41 242.28 267.86 234.03C267.72 233.39 267.58 232.76 267.44 232.12C266.9 230.43 266.36 228.73 265.83 227.04C265.7 226.4 265.58 225.76 265.45 225.12C264.95 223.42 264.45 221.72 263.95 220.01C263.79 219.04 263.62 218.08 263.46 217.11C262.94 215.08 262.41 213.05 261.89 211.02C261.82 210.37 261.74 209.73 261.67 209.08C261.08 206.06 260.49 203.04 259.9 200.02C259.75 198.72 259.59 197.41 259.44 196.11C258.93 192.41 258.42 188.72 257.91 185.02C257.81 182.71 257.7 180.4 257.6 178.09C257.33 174.4 257.05 170.7 256.78 167.01C256.78 164.67 256.78 162.33 256.78 159.99C256.99 156.96 257.2 153.93 257.42 150.9C257.61 149.6 257.81 148.3 258 147C258.85 144.3 259.7 141.6 260.55 138.89C260.77 138.35 260.99 137.82 261.21 137.28C261.75 136.17 262.28 135.05 262.82 133.94C263.89 131.98 264.97 130.02 266.04 128.06C266.31 127.7 266.57 127.33 266.84 126.97C267.25 126.35 267.65 125.73 268.06 125.1C268.34 124.72 268.61 124.35 268.89 123.97C269.31 123.39 269.73 122.8 270.14 122.22C270.76 121.48 271.38 120.74 272 120C272.62 119.31 273.25 118.62 273.87 117.94C276.58 115.3 279.29 112.66 282 110.01C283.12 109.08 284.23 108.16 285.35 107.23C285.62 107.18 285.82 107.04 285.96 106.81C286.31 106.54 286.66 106.27 287.01 106.01C288.33 105.13 289.65 104.24 290.97 103.36C291.17 103.22 291.37 103.08 291.57 102.93C292.7 102.21 293.83 101.49 294.96 100.76C295.32 100.52 295.68 100.27 296.05 100.02C299.69 98.1701 303.34 96.3201 306.98 94.4801C307.32 94.3201 307.66 94.1601 308 93.9901C308.34 93.9801 308.65 93.8801 308.92 93.6701C310.01 93.1501 311.09 92.6301 312.18 92.1101C314.45 91.3301 316.71 90.5401 318.98 89.7601C320.98 89.1301 322.98 88.4901 324.97 87.8601C325.61 87.7301 326.25 87.6001 326.89 87.4801C330.92 86.9401 334.95 86.4101 338.97 85.8701C350.32 85.8901 361.66 85.9101 373.01 85.9201C376.71 86.3701 380.41 86.8201 384.11 87.2701C385.08 87.4901 386.04 87.7201 387.01 87.9401C388.7 88.5201 390.39 89.1001 392.08 89.6701C392.67 89.8101 393.27 89.9401 393.86 90.0801C394.94 90.5501 396.03 91.0301 397.11 91.5001C397.97 91.7201 398.84 91.9501 399.71 92.1701C401.52 93.0201 403.32 93.8701 405.12 94.7201L405.33 94.8501C405.53 94.9601 405.74 95.0701 405.94 95.1701C406.85 95.5101 407.76 95.8501 408.67 96.1901C411.45 97.7801 414.22 99.3701 416.99 100.96L417.01 100.97C418.01 101.62 419.01 102.27 420.01 102.93C421.19 103.72 422.36 104.5 423.54 105.29C424.7 106.16 425.87 107.04 427.03 107.91L427.06 107.94C427.38 108.24 427.7 108.54 428.02 108.84C428.13 109.07 428.31 109.22 428.56 109.27C429.69 110.19 430.82 111.11 431.95 112.03C432.62 112.68 433.29 113.33 433.96 113.99C434.63 114.66 435.29 115.33 435.96 116C436.92 117.07 437.87 118.15 438.83 119.22C440.98 122.13 443.14 125.03 445.29 127.94C445.53 128.27 445.77 128.59 446.01 128.92C446.4 129.59 446.79 130.25 447.18 130.92C448.75 134.32 450.32 137.73 451.88 141.13C452.11 142.04 452.35 142.95 452.58 143.86C453.08 145.89 453.58 147.93 454.08 149.96C454.25 152.6 454.41 155.23 454.58 157.87C454.57 160.61 454.56 163.35 454.55 166.09C454.38 170.73 454.22 175.36 454.05 180C453.48 184.67 452.9 189.34 452.33 194.01C452.24 195.01 452.15 196.01 452.06 197.01C451.46 200.34 450.85 203.67 450.25 207C450.17 207.67 450.1 208.33 450.02 209C449.45 211.36 448.89 213.72 448.32 216.08C448.22 216.72 448.11 217.36 448.01 218C447.46 220.03 446.91 222.06 446.36 224.09C446.25 224.73 446.13 225.37 446.02 226C445.58 227.37 445.13 228.75 444.69 230.12C444.47 231.08 444.25 232.04 444.03 233C443.5 235.03 442.97 237.06 442.43 239.09C442.4 241.69 442.37 244.3 442.34 246.9C443.25 248.56 444.15 250.22 445.06 251.88C445.6 252.32 446.13 252.77 446.67 253.21C448.13 254.09 449.59 254.98 451.04 255.86C451.49 256.22 451.94 256.59 452.39 256.95C452.62 257.24 452.84 257.53 453.07 257.82L453.15 257.94C452.19 262.63 451.23 267.32 450.27 272.01C450.13 272.6 450 273.2 449.86 273.79C449.4 274.89 448.94 275.99 448.48 277.09C448.2 278.22 447.91 279.36 447.63 280.49C447.26 281.36 446.89 282.23 446.52 283.09C446.35 283.72 446.18 284.35 446 284.98C445.05 287.33 444.09 289.68 443.14 292.03C442.09 292.91 441.04 293.79 439.99 294.66C439.75 294.8 439.51 294.95 439.27 295.09C439.27 295.09 439.1 295.19 439.1 295.18C438.07 295.44 437.03 295.7 436 295.96C429.7 296.13 423.4 296.31 417.1 296.48C413.57 297.52 410.04 298.57 406.51 299.61C405.89 299.78 405.02 299.75 404.69 300.16C403.69 301.42 402.9 302.85 402.03 304.22C403.69 304.78 405.35 305.34 407.01 305.9C407.71 306.17 408.42 306.44 409.12 306.71L409.27 306.85C407.9 312.23 406.52 317.61 405.15 322.99C404.77 323.34 404.39 323.69 404.02 324.05C401.49 325.54 398.97 327.03 396.44 328.52C395.97 328.73 395.51 328.94 395.04 329.14C390.81 326.96 393.78 323.31 393.19 320.39C392.89 318.87 391.95 317.48 391.31 316.02C390.54 317.36 389.34 318.64 389.1 320.07C388.4 324.25 388.09 328.5 387.62 332.72C387.09 332.95 386.56 333.17 386.02 333.4C385.67 333.58 385.31 333.77 384.96 333.95C384.63 333.94 384.33 334.03 384.06 334.23C382.71 334.83 381.36 335.44 380 336.04C379.28 336.17 378.57 336.29 377.85 336.42C377.44 333.58 377.02 330.74 376.61 327.9C376.6 326.29 376.59 324.68 376.58 323.06C375.8 322.07 375.02 321.08 374.23 320.1C373.6 321.09 372.97 322.07 372.34 323.06C372.39 327.38 372.44 331.69 372.49 336.01C372.4 336.69 372.31 337.36 372.23 338.04C368.82 339.4 365.42 340.77 362.01 342.13C360.93 342.32 359.86 342.52 358.78 342.71C358.53 342.44 358.28 342.18 358.03 341.92C358.01 337 357.96 332.08 357.98 327.16C357.99 325.11 357.73 323.44 355 324.13C354.43 325.65 353.46 327.15 353.38 328.69C353.16 333.05 353.3 337.43 353.3 342.35C349.56 341.57 346.73 340.98 343.9 340.39C343.23 340.27 342.57 340.14 341.9 340.02C341.62 339.91 341.34 339.8 341.06 339.69C340.68 339.46 340.29 339.23 339.91 339C339.84 333.89 339.92 328.78 339.58 323.69C339.5 322.49 337.97 321.38 337.11 320.23C336.19 321.35 334.86 322.34 334.46 323.62C333.99 325.12 334.47 326.9 334.27 328.53C333.94 331.2 333.39 333.85 332.93 336.51C331.6 336.01 330.28 335.51 328.95 335C328.6 334.75 328.25 334.5 327.9 334.25C327.36 334.07 326.82 333.9 326.27 333.73C325.49 333.19 324.71 332.64 323.93 332.1C323.77 331.45 323.61 330.81 323.45 330.16C323.24 326.06 323.13 321.95 322.7 317.87C322.62 317.15 321.16 316.05 320.37 316.08C319.59 316.11 318.26 317.3 318.21 318.05C318.06 320.51 318.58 323.02 318.44 325.49C318.36 326.78 317.44 328.02 316.89 329.28L316.66 329.15C316.4 328.99 316.15 328.83 315.89 328.67C314.88 328.14 313.87 327.61 312.85 327.08C312.53 326.89 312.2 326.7 311.88 326.51C311.09 326.06 310.3 325.61 309.51 325.16C309.32 325.04 309.12 324.93 308.93 324.81C308.54 324.59 308.15 324.37 307.76 324.14C307.22 323.68 306.68 323.22 306.15 322.77C305.94 321.9 305.73 321.04 305.52 320.17C305.07 319.05 304.62 317.93 304.17 316.81C304.03 316.23 303.89 315.64 303.75 315.06C303.18 313.35 302.61 311.64 302.04 309.93C301.99 309.23 301.94 308.54 301.89 307.84C302.37 307.31 302.85 306.78 303.32 306.25C304.61 306.13 305.91 306 307.2 305.88C310.05 305.61 310.48 304.25 308.96 302C308.63 301.67 308.3 301.34 307.96 301.02C307.8 300.83 307.6 300.7 307.36 300.63C303.53 299.3 299.68 297.98 295.82 296.65ZM429.65 246.13C429.66 234.35 428.54 230.5 422.31 227.95C417.74 226.08 412.23 224.78 407.46 225.46C394.04 227.37 383.58 235.95 372.64 243.13C369.45 245.22 370.74 248.35 373.46 250.11C379.02 253.72 384.78 257 390.5 260.36C400.6 266.28 410.46 266.02 420.64 260.02C426.66 256.46 431.76 253.05 429.65 246.13ZM282.6 244.42C283 247.67 282.18 252.21 284.01 253.94C290.95 260.53 299.2 266.22 309.29 264.62C320.62 262.82 330.46 256.91 339.42 249.77C342.17 247.58 342.66 244.77 339.38 242.85C329.8 237.22 320.5 230.69 310.25 226.71C294.18 220.47 282.94 228.4 282.6 244.42ZM373.63 289.87C373.35 289.63 373.06 289.39 372.78 289.14C372.73 288.65 372.8 288.09 372.6 287.67C367.76 277.49 363 267.27 357.93 257.21C356.67 254.71 354.58 255.58 353.25 257.65C351.72 260.03 350.15 262.41 348.93 264.94C345.61 271.82 342.17 278.66 339.36 285.75C337.76 289.79 339.08 293.68 343.11 296.06C346.59 298.12 349.14 297 351.65 293.92C354.4 290.54 357.75 291.02 360.65 294.08C362.57 296.1 364.32 299.32 367.5 297.03C369.97 295.25 371.62 292.3 373.63 289.87Z" fill="#F50405"/>
<path d="M116.97 476.93C120.7 470.31 125.04 472.13 129.8 474.07C133.15 475.44 134.66 477.29 134.06 480.78C133.22 485.67 136.16 487.25 140.19 487.96C146.76 489.11 147.55 488.59 150.05 482.47C150.45 481.5 151.79 480.58 152.87 480.28C154.61 479.79 156.61 480.17 158.29 479.59C162.1 478.29 164.44 479.69 165.61 483.21C166.92 487.17 169.36 487.25 172.57 485.73C173.92 485.09 175.31 484.43 176.75 484.1C180.26 483.31 182 481.96 180.52 477.85C179.98 476.36 180.95 473.58 182.18 472.32C188.57 465.79 188.68 465.9 196.52 469.73C198.48 466.58 200.51 463.39 202.44 460.14C202.83 459.49 203.21 458.22 202.89 457.86C199.66 454.22 202.13 450.64 202.83 447.05C203.45 443.89 204.52 441.35 208.65 441.96C209.39 442.07 211.01 440.63 211.13 439.75C211.57 436.47 211.74 433.11 211.59 429.8C211.55 428.99 210 427.74 209 427.56C206.02 427.05 205.02 425.16 205.31 422.61C205.78 418.44 206.65 414.32 207.25 410.16C207.5 408.41 207.48 406.63 207.62 404.1C209.06 405.78 210.49 406.93 211.25 408.42C214.81 415.37 218.85 422.19 221.36 429.53C222.63 433.25 222.08 438.37 220.57 442.14C212.39 462.51 203.73 482.69 195.07 502.86C192.32 509.27 189.22 515.55 185.93 521.71C185.03 523.39 183.03 525.2 181.24 525.57C166.43 528.69 151.54 531.43 136.7 534.42C132.68 535.23 129.77 534.3 127.12 530.98C116.01 517.07 103.91 503.88 93.6699 489.37C80.6399 470.91 75.6299 449.14 72.1899 427.15C69.1899 407.97 68.5099 388.66 72.1199 369.48C73.6799 361.2 75.6799 352.86 78.7099 345.02C83.6099 332.32 94.6399 327.39 107.22 326.45C124.79 325.13 142.47 323.77 160.04 324.32C171.84 324.69 183.58 328.16 195.26 330.65C198.14 331.26 199.95 331.81 201.9 328.88C204.05 325.66 215.11 327.37 216.75 330.87C219.42 336.58 226.08 338.75 231.14 335.61C231.93 335.12 232.91 334.49 233.73 334.57C237.77 334.97 244.13 340.97 245.25 345.22C246.71 350.76 255.81 354.14 260.18 350.61C262.47 348.76 264.38 348.51 266.86 350.22C270.77 352.9 275.4 354.61 274.83 360.93C274.5 364.62 277.3 365.82 280.64 364.52C282.95 363.62 285.18 362.43 287.27 361.08C296.08 355.39 304.88 349.7 313.53 343.78C316.18 341.96 318.38 341.58 321.32 343.02C327.45 346.01 333.67 348.84 340 351.37C343.08 352.6 344.67 354.16 344.27 357.59C343.84 361.31 345.58 365.41 340.43 367.74C323 375.65 305.49 383.43 288.49 392.2C276.41 398.43 265.6 396.76 253.71 391.68C226.81 380.18 199.58 369.46 172.33 358.81C168.68 357.38 163.98 357.42 160.03 358.17C133.25 363.26 112.77 377.17 100.71 402.16C98.9199 405.86 96.9999 409.39 99.5499 414.25C101.2 417.39 99.9599 422.09 99.8699 426.08C99.8599 426.77 99.2899 427.85 98.7299 428.07C93.9699 429.89 94.6099 433.35 95.6299 437.13C96.0999 438.88 95.6499 440.97 96.3999 442.52C97.0899 443.94 98.8899 445.87 100.11 445.81C106.71 445.44 106.99 451.33 109.16 454.94C109.91 456.2 107.85 459.04 107.31 461.22C106.96 462.63 106.35 464.66 107.01 465.52C109.89 469.28 113.21 472.71 116.97 476.93Z" fill="#F20405"/>
<path d="M513.07 331.89C534.98 323.32 558.08 323 581.28 324.18C590.57 324.65 599.84 325.86 609.06 327.15C623.58 329.18 632.03 338.06 636.01 351.82C643.92 379.13 643.66 406.69 638.54 434.37C635.1 452.95 630.69 471.5 619.71 487.09C608.52 502.96 595.71 517.71 583.25 532.65C581.89 534.28 577.96 534.73 575.48 534.29C560.58 531.67 545.72 528.75 530.92 525.6C529.01 525.19 526.72 523.25 525.91 521.43C514.2 494.98 502.63 468.46 491.24 441.86C489.09 436.83 489.03 431.52 491.71 426.39C494.79 420.5 497.59 414.47 500.67 408.58C501.47 407.04 502.87 405.82 503.64 404.88C504.61 407.7 506.05 410.31 506.33 413.03C506.74 417.11 506.41 421.27 506.22 425.39C506.19 425.98 505.27 426.63 504.63 427.05C503.23 427.96 500.55 428.66 500.49 429.59C500.24 433.37 500.71 437.2 501.11 440.99C501.15 441.41 502.39 441.8 503.13 442.04C504.74 442.58 507.46 442.61 507.82 443.56C509.21 447.24 511.63 452.02 510.33 454.87C508.46 458.98 510.07 461.03 511.76 463.78C512.98 465.74 514.23 467.69 515.64 469.92C518.02 468.55 520.14 467.34 522.52 465.98C525.21 468.26 528.13 470.27 530.39 472.86C531.43 474.05 531.89 476.6 531.39 478.11C530.23 481.57 531.38 483.11 534.57 483.93C535.85 484.26 537.14 484.7 538.32 485.3C542.37 487.38 545.45 487.24 547 482.18C547.78 479.63 549.56 478.5 552.41 479.3C554.16 479.79 556.02 479.98 557.84 480.02C560.6 480.08 562.25 481.05 562.32 484.08C562.39 487.45 564.25 488.82 567.54 488.29C569.99 487.9 572.64 487.92 574.81 486.91C576.22 486.25 577.51 484.2 577.83 482.57C578.43 479.5 576.91 475.89 581.49 474.38C586.2 472.82 590.83 469.41 594.9 477.01C598.72 472.77 602.17 469.28 605.11 465.4C605.76 464.54 605.16 461.8 604.21 460.83C601.58 458.16 601.68 455.87 603.65 452.91C605.99 449.4 607.23 444.7 613.05 445.95C613.47 446.04 614.37 445.75 614.39 445.56C614.99 440.36 615.8 435.16 615.85 429.95C615.86 428.6 612.41 427.32 612.29 425.86C611.93 421.61 612.47 417.28 612.63 412.98C612.72 410.54 613.53 407.75 612.66 405.7C602.47 381.81 584.72 367.05 559.63 359.75C545.71 355.7 534.05 360.21 522.09 365.04C498.05 374.76 474.21 384.98 450.21 394.81C443.19 397.69 435.95 397.75 428.9 394.44C409.91 385.54 390.98 376.5 371.87 367.87C366.74 365.56 368.14 361.64 367.76 357.85C367.4 354.25 368.91 352.54 372.21 351.26C378.41 348.86 384.51 346.14 390.44 343.14C393.61 341.53 395.96 342.05 398.69 343.89C407.24 349.67 415.89 355.29 424.51 360.95C425.9 361.86 427.3 362.79 428.79 363.52C434.83 366.46 437.18 365.4 437.43 358.71C437.62 353.86 441.49 353.21 444.1 350.94C447.51 347.98 450.11 349.04 453.22 351.63C454.41 352.62 457.34 352.7 458.82 351.93C462.82 349.86 466.95 348.03 467.39 342.09C467.72 337.59 478.37 334.13 482.29 336.58C484.6 338.02 493.05 335.66 494.73 333.11C499.51 325.78 506.75 325.17 513.07 331.89Z" fill="#F20506"/>
<path d="M396.07 481.58C393.21 487.75 391.15 493.02 388.33 497.84C387.35 499.51 384.16 499.72 382.54 501.2C380.22 503.33 378.17 505.86 376.54 508.54C375.95 509.52 376.41 511.8 377.22 512.85C380.35 516.92 379.96 525.01 375.92 528.14C371.67 531.44 374.21 535.77 374.09 539.61C374.07 540.27 377.41 541.48 379.28 541.66C383.86 542.09 383.92 546.07 385.07 548.89C385.73 550.51 385.61 553.55 384.53 554.57C381.45 557.48 381.74 559.68 384.45 562.45C386.52 564.57 388.3 566.98 390.14 569.18C391.01 568.96 391.54 568.94 391.94 568.7C398.24 564.97 400.22 565.09 405.39 570.51C406.36 571.52 406.58 573.82 406.29 575.36C405.71 578.43 406.34 580.08 409.66 580.55C411.95 580.87 414.15 582.01 416.43 582.17C417.66 582.26 419.9 581.3 420.13 580.41C422.01 573.23 427.68 574.81 432.23 575.52C434.83 575.92 437.06 578.7 439.46 580.4C439.31 581.07 439.16 581.74 439 582.41C443.06 580.77 447.19 579.26 451.12 577.36C451.82 577.02 452.04 575.03 451.97 573.84C451.64 568.65 459.73 562.55 464.65 564.12C465.96 564.54 468.57 564.13 469.08 563.24C471.32 559.33 476.12 557.03 474.07 550.35C473.06 547.06 478.26 541.89 480.61 537.54C481.77 535.39 483.53 533.3 483.86 531.01C487.19 508.01 476.64 490.14 462.41 473.59C452.6 462.18 440.3 456.05 425.48 453.79C411.84 451.72 398.35 448.65 384.83 445.84C383.21 445.5 381.52 444.26 380.39 442.98C374.34 436.11 368.43 429.11 362.55 422.1C361.73 421.13 360.84 419.81 360.83 418.64C360.71 404.69 360.75 390.74 360.75 375.89C367.68 379.12 375.39 378.95 379.71 386.7C384.27 394.89 390.51 401.98 399.09 406.36C400.51 407.09 403.57 406.88 404.5 405.85C407.33 402.74 410.03 402.81 413.3 404.68C414.74 405.5 416.25 406.27 417.83 406.78C420.96 407.8 422.58 409.65 422 413.07C421.46 416.27 422.94 417.96 425.97 418.85C430.69 420.22 434.96 423.64 440.21 418.92C441.62 417.65 446.27 419.95 449.43 420.66C453.11 421.49 455.96 422.83 455.15 427.63C454.96 428.77 456.36 430.98 457.49 431.38C461.42 432.78 464.54 437.13 469.77 434.69C470.58 434.31 473.52 436.85 474.42 438.59C480.64 450.67 487.3 462.61 492.44 475.15C501.19 496.52 508.95 518.3 517.07 539.93C518.98 545.01 517.28 549.76 514.15 553.48C504.84 564.54 495.22 575.35 485.52 586.08C472.25 600.76 457.16 613.18 439.65 622.59C434.56 625.32 430.03 626.34 424.13 624.35C410.27 619.68 396.05 616.07 382.06 611.76C380.11 611.16 377.8 609.39 377.05 607.58C372.01 595.47 367.29 583.21 362.61 570.95C361.98 569.31 362.06 567.35 362.06 565.53C362.02 546.7 361.93 527.86 362.16 509.03C362.19 506.48 363.31 503.51 364.89 501.47C371.06 493.5 378.04 486.34 387.99 483.1C390.25 482.39 392.69 482.21 396.07 481.58Z" fill="#F20506"/>
<path d="M351.02 375.72C351.02 386.58 350.34 396.6 351.21 406.49C352.07 416.29 349.26 423.94 342.13 430.45C339.57 432.79 337.12 435.46 335.34 438.42C331.26 445.18 324.73 446.67 317.73 447.9C304.79 450.18 291.9 452.76 279 455.28C265.17 457.98 254.97 466.17 246.44 476.9C237.24 488.48 228.78 500.49 227.58 515.82C227.1 521.9 227.78 528.08 228.12 534.21C228.17 535.16 229.15 536.11 229.8 536.98C233.53 542.01 239.48 545.86 236.7 553.95C236.08 555.75 239.37 558.91 240.89 561.42C242.55 564.15 244.05 565.98 247.95 563.84C251.62 561.83 260.36 569.64 259.47 573.87C258.93 576.47 259.73 577.53 262.08 578.21C263.99 578.76 265.86 579.54 267.61 580.47C270.88 582.2 273.39 582.87 274.67 578.09C274.99 576.88 277.28 575.97 278.84 575.4C280.02 574.97 281.51 575.48 282.8 575.23C286.97 574.43 290.01 575.33 291.07 579.97C291.28 580.89 292.02 581.69 292.68 582.84C295.01 582.31 297.27 581.89 299.47 581.28C301.52 580.72 303.52 579.97 305.92 579.18C304.42 574.52 304.35 570.85 309.18 567.94C312.66 565.84 315.14 564.76 318.28 567.89C320.06 569.67 321.77 569.37 323.24 567.28C324.39 565.65 325.6 564.04 326.96 562.58C329.49 559.88 330.4 557.34 326.97 554.64C324.01 552.31 325.94 549.82 326.96 547.48C328.09 544.89 328.29 541.48 332.6 541.63C334.29 541.69 337.51 540.55 337.51 539.94C337.52 536.17 337.22 532.29 336.23 528.66C335.46 525.82 333.45 523.34 332.17 520.62C330.54 517.17 331.96 514.68 334.79 512.52C335.45 512.01 335.93 510.04 335.54 509.59C332.89 506.59 333.45 501.2 326.86 500.79C324 500.61 321.15 494.61 319 490.86C317.64 488.49 317.59 485.37 316.86 482.2C321.74 481.24 326.49 483.5 330.2 486.35C336.47 491.16 342.03 496.95 347.59 502.62C348.77 503.82 349.06 506.29 349.07 508.17C349.17 527.83 349.93 547.54 348.78 567.14C348.26 575.98 344.51 584.86 341.1 593.27C333.77 611.33 333.46 611.17 309.23 617.94C300.74 620.31 292.37 623.11 283.83 625.28C281.5 625.87 278.48 625.54 276.28 624.53C258.63 616.45 243.66 604.54 230.28 590.68C220.11 580.15 210.4 569.18 200.68 558.23C194.68 551.46 192.72 544.2 195.83 534.82C205.6 505.37 216.37 476.44 232.49 449.76C234.09 447.11 235.12 444.05 236.01 441.06C237.35 436.58 239.87 434.76 244.34 435.55C248.33 436.26 255.76 430.17 256.43 426.21C256.71 424.55 258.21 422.62 259.7 421.75C262.1 420.34 264.89 419.39 267.63 418.87C269.32 418.55 271.72 418.8 272.95 419.83C278.47 424.42 282.63 419.29 287.12 417.88C288.5 417.45 288.82 413.95 289.85 411.97C290.73 410.27 291.61 408.33 293.05 407.23C294.85 405.85 297.28 405.33 299.33 404.23C301.89 402.86 304.05 402.9 305.87 405.39C307.99 408.3 310.32 408.01 313.19 406.27C320.94 401.56 327.09 395.19 331.34 387.37C335.63 379.49 343.44 379.04 351.02 375.72Z" fill="#F20506"/>
<path d="M202.36 267.92C202.28 267.28 202.21 266.64 202.13 266.01C202.39 264.6 203.21 263.01 202.83 261.8C199.95 252.57 196.91 243.4 193.72 234.27C193.2 232.77 191.69 231.61 190.65 230.3L190.84 229.96L190.63 230.29C190.67 225.58 188.21 222.67 183.99 221.01C183.33 220.33 182.68 219.66 182.02 218.98L182.01 218.97C181.68 218.64 181.35 218.31 181.02 217.98C180.68 217.66 180.34 217.34 180 217.01C179.22 215.81 178.69 214.28 177.62 213.47C165.26 204.2 151.01 201.59 135.98 202.1C132.5 202.22 130.47 204.2 131.03 208.02C127.41 208.97 123.79 209.93 120.17 210.88L120.1 210.8C116.48 207.2 115.52 210.82 114.03 213.03L114.04 213.02C110.4 213.46 107.77 214.75 108.6 219.19C109.72 225.19 107.46 227.92 101.43 228.22C100.9 228.25 100.42 229.25 99.9099 229.8L99.8099 229.9C94.7499 233.27 94.16 239.9 98.45 243.4C99.3 244.1 99.57 245.58 99.9799 246.75C101.39 250.76 97.7099 252.68 96.2999 255.53C96.1599 256.35 96.0199 257.17 95.8799 257.99C94.1499 263.83 95.8299 268.13 99.7399 267.86C105.87 267.44 108.14 270.71 106.18 276.86C105.91 277.72 106.73 278.93 107.05 279.98C107.37 280.31 107.69 280.64 108.01 280.97C108.68 281.64 109.34 282.32 110.01 282.99C110.35 283.33 110.69 283.66 111.02 284C111.35 284.33 111.67 284.66 112 284.99C112.86 286.35 113.73 287.7 115.16 289.97C118.16 284.57 121.64 284.11 125.72 286.91C126.19 287.23 126.99 287.06 127.64 287.11C127.78 289.05 127.91 290.98 128.05 292.92C130.49 295.74 136.49 295.36 140.21 293.34C143.16 291.73 146.91 291.58 150.3 290.77L150.04 290.78C150.04 290.78 150.3 290.73 150.29 290.73C151.48 295.98 154.8 293.23 157.02 292.15C159.6 290.9 161.07 290.3 160.99 294C160.89 294.19 160.74 294.27 160.52 294.24C159.09 295.25 157.65 296.26 156.22 297.28L156.14 297.01C156.14 297.01 156.26 297.27 156.25 297.27C155.49 297.83 154.73 298.39 153.97 298.95C153.87 299.17 153.7 299.29 153.45 299.3C152.62 299.86 151.8 300.43 150.98 300.99C150.87 301.2 150.69 301.3 150.44 301.29C149.38 301.97 148.32 302.65 147.26 303.33L147.12 303.03C147.12 303.03 147.28 303.33 147.27 303.33C144.11 304.52 140.94 305.66 137.81 306.91C135.81 307.71 133.87 308.68 131.91 309.58C131.27 309.7 130.63 309.81 129.99 309.93C128.13 309.87 126.28 309.73 124.42 309.75C117.26 309.82 110.11 309.94 102.95 310.04L102.96 310.05C101.31 309.03 99.6599 308.01 98.0099 306.99C96.9499 305.84 96.0999 304.2 94.7799 303.63C88.5799 300.93 82.2499 298.53 75.9699 296.03C75.4299 294.66 74.8899 293.29 74.3399 291.92C74.3299 285.31 74.3199 278.7 74.3099 272.08C74.8599 270.51 75.79 268.97 75.89 267.38C76.24 261.92 75.3599 256.21 76.6599 251.03C79.6299 239.18 83.2799 227.47 87.2899 215.93C89.4599 209.68 93.1799 204.3 99.9699 201.54C111.24 196.95 122.33 191.93 133.44 186.96C138.04 184.9 142.49 182.48 147.01 180.23C152.67 180.2 158.34 180.17 164 180.15C165.87 180.48 167.74 180.81 169.6 181.14C169.72 181.77 169.84 182.4 169.95 183.03C174.82 184.46 179.64 186.82 184.56 187.07C189.39 187.31 197.3 189.29 197.61 192.92C198.21 200.07 204.2 202.07 208.43 205.8C208.95 205.91 209.46 206.03 209.98 206.14C212.97 207.44 215.96 208.74 218.95 210.04L218.96 210.05C219.25 213.45 222.09 216.82 219.19 220.34C219.16 220.38 220.37 221.45 221 222.04C221.21 222.15 221.3 222.32 221.28 222.56C222.06 225.65 221.96 229.56 223.87 231.57C225.58 233.37 229.5 233.08 233.05 233.83C233.67 238.05 234.32 242.52 234.97 246.99C230.96 247.17 229.82 249.29 230.86 252.97C231.62 255.65 232.69 258.32 232.94 261.05C233.31 265.17 235.27 266.72 239.26 267.15C241.14 267.35 243.66 268.79 244.46 270.39C245.97 273.42 246.46 276.96 247.37 280.29L247.27 279.99C247.27 279.99 247.35 280.29 247.34 280.29C246.9 280.87 246.47 281.46 246.03 282.05L246.04 282.04C245.04 283.38 244.03 284.71 243.03 286.05L243.04 286.04C242.49 286.33 241.43 286.75 241.47 286.88C243.17 293.4 245.15 299.8 251.01 304.01L251 304C251.43 304.59 251.86 305.19 252.29 305.78L252.23 305.72C254 306.81 255.7 308.68 257.57 308.86C267.06 309.8 276.6 310.24 286.1 311.07C287.22 311.17 288.45 312.37 289.26 313.37C291.27 315.84 293.07 318.48 294.95 321.05L294.96 321.07C296.5 325.48 298.04 329.89 299.45 333.95C297.55 335.22 295.73 336.44 293.91 337.65C293.28 337.71 292.64 337.77 292.01 337.84C287.77 337.58 283.53 337.39 279.3 337.04C275.05 336.69 270.48 337.05 266.65 335.55C259.36 332.71 252.55 328.63 245.42 325.33C240.39 323 235.16 321.1 230.02 319C228.01 317.67 226.01 316.35 224 315.02C220.33 310.69 216.66 306.36 212.98 302.03C212.92 301.04 213.04 300 212.78 299.07C210.18 289.81 207.57 280.55 204.81 271.34C204.44 270.06 203.2 269.05 202.36 267.92Z" fill="#F80304"/>
<path d="M548.01 180.13C553.67 180.16 559.33 180.19 564.99 180.22C571.74 183.55 578.39 187.13 585.29 190.12C590.01 192.17 595.09 193.4 600.01 195H600C600.58 195.68 601.02 196.65 601.76 197C608.15 200.06 614.6 203.01 621.03 205.99L621.02 205.98C622.35 208.33 623.67 210.67 625 213.02C625.29 213.69 625.59 214.36 625.88 215.03C626.3 217.61 626.37 220.32 627.23 222.74C628.37 225.97 630.13 228.98 631.62 232.09C631.73 232.73 631.84 233.37 631.95 234.01C631.16 241.47 635.5 247.47 637.7 254.07C637.74 258.71 637.78 263.36 637.82 268C637.55 269.59 637.08 271.18 637.05 272.77C636.95 278.25 637.04 283.74 637.01 289.23C636.99 293.21 635.81 295.94 631.33 297.3C626.36 298.8 621.57 301.19 617.05 303.8C613.75 305.71 611.03 308.6 608.05 311.05L608.06 311.04C588.51 311.97 570.53 307.75 555.04 295.11C553.89 294.17 552.15 293.97 550.69 293.42L550.58 293.35C551.47 290.5 552.84 291.15 555.08 292.15C556.69 292.87 559.26 296.31 560.97 291.93L560.95 291.95C565.43 290.4 569.76 290.51 573.89 293.06L573.95 293.12C576.79 295.76 581.26 295.75 584.08 293.11L584.13 293.06C584.76 291.91 585.67 290.83 585.97 289.6C586.92 285.68 590.91 283.81 594.3 285.86C598.83 288.6 600.55 287.96 602.75 282.74C603.41 282.07 604.07 281.4 604.72 280.73V280.78C608.15 279.58 606.99 277.56 605.87 275.29C604.14 271.79 607.18 267.27 610.98 267.48C616.7 267.79 617.91 266.05 616.17 260.01C616.26 259.37 616.34 258.73 616.43 258.09C616.19 256.56 616.18 254.95 615.64 253.53C614.98 251.78 613.01 250.1 613.18 248.57C613.47 245.98 615 243.54 616.01 241.03C616.04 240.69 616.07 240.35 616.09 240.01C617.11 236.33 614.76 228.27 612.44 228.59C607.91 229.22 605.5 226.63 602.67 224.29C602.84 223.14 602.94 221.98 603.19 220.84C604.32 215.72 603.44 214.34 598.09 212.95L598.05 212.92C597.69 212.62 597.33 212.32 596.98 212.02L596.99 212.03C595.98 208.57 594.47 207.45 591.98 210.97L591.97 210.98C588.08 209.62 584.19 208.26 580.3 206.9C580.25 206.25 580.2 205.61 580.15 204.96C580.28 204.54 580.63 203.84 580.5 203.73C577.57 201.32 568.07 201.32 564.93 203.68C564.29 203.73 563.64 203.77 563 203.82C557.32 201.29 552.54 205.1 547.46 206.29C545.06 206.85 543.1 209.32 540.95 210.92L540.92 210.94C539.08 212.1 537.24 213.25 535.4 214.41C535.4 214.41 535.35 214.49 535.35 214.48C530.86 215.21 528.44 218.07 527.31 222.27L527.27 222.26C526.94 222.6 526.62 222.94 526.29 223.28L526.2 222.99C526.2 222.99 526.32 223.27 526.32 223.26C525.33 224.6 524.35 225.95 523.36 227.29L523.35 227.27C522.62 227.83 521.53 228.24 521.21 228.98C518.51 235.12 515.52 241.19 513.46 247.55C511.45 253.76 510.53 260.31 508.98 266.67C507.21 273.95 505.49 281.25 503.36 288.43C501.64 294.2 499.34 299.8 497.3 305.48C497.3 305.72 497.2 305.88 496.98 305.97C493.66 309.32 490.35 312.68 487.03 316.03V316.02C477.12 320.73 466.81 324.77 457.4 330.33C445.91 337.12 433.74 337.78 421.15 336.87C418.48 336.68 415.67 335.45 413.46 333.92C412.9 333.53 414.41 330.19 414.89 328.18C415 327.74 414.76 327.21 414.68 326.72L415 326.78L414.68 326.75C416.14 323.86 417.6 320.96 419.06 318.07L419.08 318.05C420.26 316.61 421.32 315.03 422.67 313.77C423.87 312.65 425.32 311.27 426.79 311.09C431.97 310.47 437.22 310.4 442.42 309.92C443.68 309.8 444.86 308.89 446.07 308.35C448.04 308.3 450.02 308.25 451.99 308.2C454.22 308.95 456.6 310.47 458 307.01C462.92 306.48 464.36 303.07 464.76 298.81L464.92 299.04C464.92 299.04 464.74 298.82 464.74 298.83C466.81 295.47 469.21 292.24 470.74 288.65C471.16 287.67 468.99 285.58 468 284.01C467.17 281.95 466.34 279.88 465.55 277.92C466.04 276.24 466.61 274.55 467.01 272.82C467.88 269.11 469.3 266.56 473.96 266.79C475.55 266.87 477.97 264.82 478.77 263.14C480.08 260.39 479.74 256.78 481.26 254.23C483.24 250.9 481.75 249.36 479.75 247.15C478.47 245.73 477.26 243.49 477.39 241.72C477.61 238.89 478.97 236.14 479.92 233.12C483.89 232.78 489.02 234.34 490.13 228.21C490.87 224.1 495.29 220.31 491.1 216.03C493.91 211.52 495.94 206.6 501.98 206.12C502.35 206.11 502.73 206.09 503.1 206.08C503.74 205.4 504.37 204.72 505.01 204.04L505.02 204.03C505.34 203.68 505.66 203.34 505.98 202.99L505.97 203C506.97 201.99 507.97 200.99 508.97 199.98L508.96 200C509.31 199.69 509.67 199.38 510.02 199.07L510.04 199.05C511.68 197.58 513.45 196.24 514.91 194.61C516.43 192.93 517.32 189.85 519.06 189.33C525.47 187.45 532.2 186.67 538.64 184.88C541.95 183.95 544.9 181.75 548.01 180.13Z" fill="#F80304"/>
<path d="M147.03 180.21C142.51 182.46 138.06 184.88 133.46 186.94C122.35 191.91 111.26 196.93 99.9899 201.52C93.1999 204.29 89.4799 209.66 87.3099 215.91C83.2899 227.45 79.6399 239.16 76.6799 251.01C75.3799 256.2 76.26 261.91 75.91 267.36C75.81 268.95 74.8799 270.5 74.3299 272.06C72.2599 257.8 75.89 244.41 80.63 231.2C83.26 223.86 85.49 216.3 88.92 209.35C90.6 205.95 94.15 202.74 97.64 201.1C112.53 194.1 127.71 187.7 142.81 181.14C144.1 180.6 145.61 180.52 147.03 180.21Z" fill="#C30E0E"/>
<path d="M501.99 206.1C495.95 206.58 493.92 211.51 491.11 216.01C495.31 220.29 490.89 224.09 490.14 228.19C489.03 234.31 483.91 232.75 479.93 233.1C478.98 236.12 477.62 238.86 477.4 241.7C477.26 243.47 478.48 245.71 479.76 247.13C481.76 249.35 483.24 250.88 481.27 254.21C479.75 256.77 480.09 260.38 478.78 263.12C477.98 264.79 475.56 266.84 473.97 266.77C469.3 266.54 467.88 269.09 467.02 272.8C466.62 274.53 466.05 276.22 465.56 277.9C466.35 279.86 467.18 281.92 468.01 283.99C464.63 281.98 462.78 279.19 464.57 275.31C466.35 271.43 465.01 264.97 472.67 265.52C474.1 265.62 476.14 263.22 477.16 261.53C478.23 259.75 478.12 257.31 479.02 255.39C480.57 252.08 480.58 249.59 477.21 247.26C476.15 246.53 475.69 244.15 475.83 242.6C476.07 239.99 477.17 237.47 477.62 234.86C478.13 231.93 479.52 230.91 482.46 231.62C485.54 232.37 487.42 231.28 488.21 227.91C489.07 224.26 491.37 221.43 490.17 216.75C489.4 213.77 493.37 209.23 495.94 205.95C496.67 205.02 499.9 206.01 501.99 206.1Z" fill="#C60E0E"/>
<path d="M414.67 326.73C414.75 327.22 414.98 327.74 414.88 328.19C414.4 330.19 412.88 333.54 413.45 333.93C415.66 335.46 418.47 336.68 421.14 336.88C433.73 337.8 445.9 337.13 457.39 330.34C466.8 324.78 477.11 320.74 487.02 316.03C483.99 317.99 481.1 320.22 477.91 321.85C469.79 325.99 461.09 329.17 453.42 334C443.31 340.37 432.77 340.23 421.82 338.5C417.95 337.89 414.15 336.78 409.13 335.63C411.32 332.11 413 329.42 414.67 326.73Z" fill="#C60E0E"/>
<path d="M497.29 305.48C499.33 299.8 501.63 294.2 503.35 288.43C505.48 281.25 507.2 273.95 508.97 266.67C510.52 260.31 511.44 253.76 513.45 247.55C515.51 241.19 518.5 235.12 521.2 228.98C521.53 228.24 522.61 227.83 523.34 227.27C519.63 237.54 515.42 247.66 512.34 258.12C509.59 267.48 508.62 277.37 505.84 286.72C503.9 293.24 500.21 299.24 497.29 305.48Z" fill="#C60E0E"/>
<path d="M230.01 318.99C235.15 321.08 240.38 322.99 245.41 325.32C252.54 328.62 259.34 332.7 266.64 335.54C270.47 337.03 275.04 336.68 279.29 337.03C283.52 337.38 287.76 337.57 292 337.83C282.22 339.63 272.63 341.33 263.07 336.04C253.65 330.82 243.72 326.52 234.05 321.75C232.61 321.03 231.36 319.91 230.01 318.99Z" fill="#C30E0E"/>
<path d="M550.67 293.43C552.14 293.97 553.88 294.18 555.02 295.12C570.51 307.76 588.5 311.98 608.04 311.05C606.44 311.68 604.84 312.87 603.24 312.87C583.86 312.91 566.35 307.49 551.48 294.65C551.13 294.33 550.94 293.83 550.67 293.43Z" fill="#C60E0E"/>
<path d="M131.03 208.03C130.47 204.21 132.5 202.23 135.98 202.11C151.01 201.6 165.26 204.2 177.62 213.48C178.69 214.29 179.22 215.82 180 217.02C172.49 212.21 165.18 206.79 156.07 205.53C149.37 204.6 142.56 204.2 135.79 204.18C134.21 204.17 132.62 206.68 131.03 208.03Z" fill="#C30E0E"/>
<path d="M608.03 311.05C611.01 308.6 613.74 305.7 617.03 303.8C621.55 301.19 626.34 298.8 631.31 297.3C635.79 295.95 636.97 293.21 636.99 289.23C637.02 283.74 636.94 278.26 637.03 272.77C637.06 271.18 637.53 269.59 637.8 268C637.9 276.29 638.2 284.58 637.95 292.86C637.9 294.6 636.25 297.03 634.66 297.86C625.91 302.48 616.94 306.7 608.03 311.05Z" fill="#C60E0E"/>
<path d="M208.45 205.77C204.22 202.03 198.24 200.04 197.63 192.89C197.32 189.26 189.42 187.28 184.58 187.04C179.65 186.79 174.83 184.44 169.97 183C172.71 183.55 175.43 184.27 178.2 184.58C180.77 184.87 183.48 184.31 185.96 184.85C189.05 185.52 192.03 186.83 194.98 188.04C197.96 189.27 200.63 190.72 199.91 194.9C199.74 195.87 201.34 197.2 202.22 198.29C204.28 200.82 206.38 203.29 208.45 205.77Z" fill="#C30E0E"/>
<path d="M294.94 321.04C293.06 318.47 291.26 315.83 289.25 313.36C288.44 312.37 287.21 311.16 286.09 311.06C276.59 310.23 267.05 309.8 257.56 308.85C255.7 308.66 254 306.8 252.22 305.71C257.6 306.48 262.97 307.38 268.38 307.97C271.52 308.32 274.7 308.19 277.87 308.26C289.71 308.49 290.92 309.39 294.94 321.04Z" fill="#C30E0E"/>
<path d="M548.01 180.13C544.9 181.75 541.95 183.94 538.65 184.86C532.21 186.65 525.48 187.43 519.07 189.31C517.33 189.82 516.44 192.9 514.92 194.59C513.46 196.21 511.68 197.56 510.05 199.03C510.99 196.88 511.86 194.71 512.88 192.61C513.42 191.51 513.99 190.04 514.95 189.58C519.43 187.44 522.92 183.45 529.35 185.68C532.7 186.85 538.35 184.44 541.59 181.9C543.96 180.04 545.59 179.74 548.01 180.13Z" fill="#C60E0E"/>
<path d="M560.96 291.93C559.24 296.31 556.67 292.86 555.07 292.15C552.83 291.15 551.46 290.5 550.57 293.35C549.61 292.68 548.65 292.01 547.69 291.34C547.84 291.18 547.98 291.01 548.12 290.84C548.66 290.08 549.74 289.27 549.67 288.58C549.03 282.44 546.81 280.73 538.31 279.61C538.56 280.77 538.8 281.86 539.04 282.96C538.84 283.13 538.64 283.31 538.45 283.5C537.41 280.72 536.36 277.94 535.32 275.16C535.75 275.04 536.18 274.93 536.62 274.81C539.88 276.47 543.17 278.07 546.38 279.82C548.85 281.17 549.96 283.27 551.29 285.89C552.76 288.8 557.59 290 560.96 291.93Z" fill="#C60E0E"/>
<path d="M332.96 336.52C333.42 333.86 333.97 331.21 334.3 328.54C334.5 326.92 334.02 325.14 334.49 323.63C334.89 322.35 336.22 321.36 337.14 320.24C338 321.39 339.53 322.49 339.61 323.7C339.96 328.79 339.87 333.91 339.94 339.01C339.29 337.56 338.23 336.16 338.08 334.66C337.78 331.69 337.99 328.67 337.99 325.68C337.33 325.67 336.67 325.65 336 325.64C336 328.57 336.12 331.51 335.97 334.43C335.82 337.34 335.58 337.42 332.96 336.52Z" fill="#290101"/>
<path d="M247.37 280.28C246.46 276.95 245.97 273.41 244.46 270.38C243.66 268.78 241.15 267.34 239.26 267.14C235.27 266.71 233.3 265.16 232.94 261.04C232.7 258.3 231.62 255.64 230.86 252.96C229.82 249.29 230.95 247.16 234.97 246.98C229.1 252.22 235.01 257.17 235.44 262.22C235.77 266.2 239.53 265.02 241.98 265.92C243.54 266.49 245.5 267.94 245.87 269.36C246.81 272.89 246.93 276.63 247.37 280.28Z" fill="#C30E0E"/>
<path d="M172.03 278.09C172.12 277.86 172.28 277.72 172.52 277.68C175.46 278.4 175.38 279.84 173.67 281.9C172.34 283.5 171.21 285.28 169.99 286.98C168.33 288.32 166.67 289.66 165.01 291C164.24 290.13 163.01 289.35 162.8 288.36C162.43 286.54 162.67 284.6 162.65 282.72L162.72 282.65C163.49 282.12 164.27 281.59 165.04 281.05L165.05 281.04C167.37 280.05 169.7 279.07 172.03 278.09Z" fill="#F80304"/>
<path d="M387.62 332.75C388.08 328.53 388.4 324.28 389.1 320.1C389.34 318.67 390.55 317.4 391.31 316.05C391.96 317.5 392.89 318.9 393.19 320.42C393.77 323.34 390.81 326.99 395.04 329.17C392.57 330.36 390.1 331.56 387.62 332.75Z" fill="#3D0101"/>
<path d="M600.01 195C595.09 193.4 590.01 192.17 585.29 190.12C578.39 187.13 571.75 183.55 564.99 180.22C568.54 181.41 572.19 182.35 575.61 183.84C583.8 187.42 591.88 191.26 600.01 195Z" fill="#C60E0E"/>
<path d="M202.36 267.92C203.2 269.05 204.44 270.06 204.82 271.33C207.58 280.54 210.19 289.8 212.79 299.06C213.05 299.99 212.93 301.03 212.99 302.02C209.99 293.88 206.85 285.8 204.08 277.58C203.04 274.51 202.9 271.15 202.36 267.92Z" fill="#C30E0E"/>
<path d="M190.65 230.3C191.7 231.62 193.2 232.77 193.72 234.27C196.91 243.39 199.95 252.57 202.83 261.8C203.21 263.01 202.39 264.6 202.13 266.01C200.04 258.55 198.11 251.05 195.81 243.66C194.38 239.11 192.39 234.74 190.65 230.3Z" fill="#C30E0E"/>
<path d="M446.07 308.34C444.85 308.89 443.67 309.8 442.42 309.91C437.22 310.39 431.97 310.46 426.79 311.08C425.32 311.26 423.86 312.65 422.67 313.76C421.32 315.02 420.26 316.6 419.08 318.04C420.43 312.04 423.36 308.04 430.31 308.35C435.55 308.58 440.82 308.36 446.07 308.34Z" fill="#C60E0E"/>
<path d="M107.04 279.99C106.72 278.94 105.9 277.73 106.17 276.87C108.12 270.72 105.86 267.45 99.73 267.87C95.82 268.14 94.14 263.84 95.87 258C96.66 260.52 97.45 263.04 97.94 264.58C101.32 265.94 104.21 266.61 106.55 268.13C112.01 271.67 107.86 275.97 107.04 279.99Z" fill="#C30E0E"/>
<path d="M96.29 255.54C97.7 252.69 101.38 250.78 99.97 246.76C99.56 245.59 99.3 244.11 98.44 243.41C94.15 239.9 94.74 233.28 99.8 229.91C99.21 231.79 98.6 233.67 98.03 235.57C97.19 238.36 95.64 240.93 100.24 242.63C101.57 243.12 102.14 248.1 101.51 250.64C101.04 252.59 98.12 253.93 96.29 255.54Z" fill="#C30E0E"/>
<path d="M234.98 246.98C234.33 242.51 233.67 238.03 233.06 233.82C229.51 233.06 225.59 233.36 223.88 231.56C221.97 229.55 222.07 225.63 221.29 222.55C222.05 223.78 223.15 224.92 223.49 226.26C224.51 230.26 226.11 233.05 230.96 231.46C231.52 231.28 232.31 231.42 232.87 231.68C235.84 233.02 237.37 244.39 234.98 246.98Z" fill="#C30E0E"/>
<path d="M616.15 260C617.9 266.04 616.69 267.78 610.96 267.47C607.17 267.27 604.13 271.78 605.85 275.28C606.97 277.55 608.13 279.57 604.7 280.77C604.65 279.5 604.94 278.09 604.5 276.97C602.01 270.61 604.63 266.18 611.57 266.03C616.13 265.94 614.49 261.88 616.15 260Z" fill="#C60E0E"/>
<path d="M343.94 340.4C346.77 340.99 349.6 341.58 353.34 342.36C353.34 337.43 353.2 333.05 353.42 328.7C353.5 327.16 354.47 325.66 355.04 324.14C355.03 328.58 355.19 333.02 354.93 337.44C354.81 339.55 353.89 341.62 353.33 343.71C350.23 342.51 345.91 344.77 343.94 340.4Z" fill="#290101"/>
<path d="M316.91 329.28C317.45 328.02 318.38 326.78 318.46 325.49C318.6 323.02 318.08 320.52 318.23 318.05C318.28 317.3 319.61 316.11 320.39 316.08C321.18 316.05 322.64 317.15 322.72 317.87C323.15 321.95 323.26 326.06 323.47 330.16C322.97 328.38 322.37 326.63 322.01 324.82C321.56 322.52 321.33 320.19 320.1 317.98C320.1 321.41 320.18 324.83 320.08 328.26C319.99 331.29 318.75 331.36 316.91 329.28Z" fill="#550303"/>
<path d="M99.9099 229.81C100.41 229.26 100.9 228.26 101.43 228.23C107.47 227.93 109.72 225.2 108.6 219.2C107.77 214.76 110.39 213.47 114.04 213.03C112 215.52 109.14 217.31 111.25 221.71C111.99 223.25 109.57 227.35 107.54 228.87C105.77 230.21 102.51 229.58 99.9099 229.81Z" fill="#C30E0E"/>
<path d="M602.73 282.74C600.53 287.96 598.81 288.6 594.28 285.86C590.89 283.81 586.9 285.68 585.95 289.6C585.65 290.83 584.74 291.91 584.11 293.06C583.41 288.21 584.45 284.23 590.08 283.72C592.5 283.5 595.04 284.54 597.53 285C597.53 285.43 597.53 285.86 597.53 286.28C599.27 285.1 601 283.92 602.73 282.74Z" fill="#C60E0E"/>
<path d="M102.96 310.03C110.12 309.93 117.27 309.81 124.43 309.74C126.28 309.72 128.14 309.86 130 309.92C122.65 310.92 115.32 312.12 107.93 312.77C106.36 312.9 104.62 311 102.96 310.03Z" fill="#C30E0E"/>
<path d="M376.6 323.09C376.61 324.7 376.62 326.31 376.63 327.93C376.12 330.6 375.6 333.28 375.09 335.95C374.23 335.98 373.38 336 372.52 336.03C372.47 331.71 372.42 327.4 372.37 323.08C373.77 323.09 375.19 323.09 376.6 323.09Z" fill="#0E0000"/>
<path d="M162.64 282.71C162.66 284.6 162.42 286.54 162.79 288.35C162.99 289.34 164.23 290.12 165 290.99C163.66 291.99 162.32 293 160.98 294C161.05 290.3 159.59 290.9 157.01 292.15C154.79 293.23 151.47 295.97 150.28 290.73C155.16 292.59 160.41 289.66 161.41 284.58C161.55 283.91 162.22 283.34 162.64 282.71Z" fill="#C30E0E"/>
<path d="M75.98 296.02C82.26 298.53 88.59 300.93 94.79 303.62C96.1 304.19 96.95 305.83 98.02 306.98C90.99 303.87 83.95 300.78 76.95 297.6C76.48 297.39 76.29 296.56 75.98 296.02Z" fill="#C30E0E"/>
<path d="M150.29 290.78C146.9 291.58 143.15 291.74 140.2 293.35C136.49 295.37 130.49 295.75 128.04 292.93C134.72 295.05 139.75 290.31 145.53 288.69C147.84 288.05 149.83 287.49 150.29 290.78Z" fill="#C30E0E"/>
<path d="M602.66 224.28C605.5 226.61 607.91 229.2 612.43 228.58C614.75 228.26 617.1 236.32 616.08 240C615.25 237.67 614.65 235.23 613.52 233.06C612.87 231.83 611.06 230.01 610.28 230.23C604.72 231.85 603.88 227.92 602.66 224.28Z" fill="#C60E0E"/>
<path d="M293.91 337.64C295.73 336.42 297.55 335.21 299.45 333.94C298.03 329.88 296.5 325.47 294.96 321.06C296.81 324.31 298.45 327.7 300.55 330.78C303.22 334.69 301.7 336.38 297.73 337.13C296.46 337.36 295.18 337.47 293.91 337.64Z" fill="#C30E0E"/>
<path d="M621.03 205.99C614.6 203.01 608.16 200.06 601.76 197C601.02 196.65 600.58 195.68 600 195C606.11 197.56 612.27 200.03 618.3 202.77C619.46 203.29 620.13 204.88 621.03 205.99Z" fill="#C60E0E"/>
<path d="M540.95 210.92C543.11 209.32 545.06 206.85 547.46 206.29C552.54 205.1 557.32 201.29 563 203.82C555.65 206.18 548.3 208.55 540.95 210.92Z" fill="#C60E0E"/>
<path d="M615.99 241.02C614.98 243.53 613.45 245.97 613.16 248.56C612.99 250.09 614.96 251.77 615.62 253.52C616.15 254.94 616.16 256.55 616.41 258.08C615.82 257.13 615.43 255.59 614.61 255.31C610.66 253.97 611.08 250.86 610.78 247.69C610.38 243.53 612 241.48 615.99 241.02Z" fill="#C60E0E"/>
<path d="M637.69 254.07C635.49 247.46 631.15 241.47 631.94 234.01C633.86 240.69 635.78 247.38 637.69 254.07Z" fill="#C60E0E"/>
<path d="M251.01 303.99C245.15 299.78 243.17 293.39 241.47 286.86C241.43 286.73 242.49 286.31 243.04 286.02C245.7 292.02 248.36 298.01 251.01 303.99Z" fill="#C30E0E"/>
<path d="M127.64 287.12C126.99 287.06 126.19 287.24 125.72 286.92C121.64 284.12 118.16 284.58 115.16 289.98C113.72 287.72 112.86 286.36 112 285C113.47 285.06 115.3 285.71 116.33 285.06C120.59 282.41 123.92 282.86 127.64 287.12Z" fill="#C30E0E"/>
<path d="M631.61 232.08C630.12 228.97 628.36 225.96 627.22 222.73C626.36 220.3 626.29 217.6 625.87 215.02C627.79 220.71 629.7 226.4 631.61 232.08Z" fill="#C60E0E"/>
<path d="M270.89 294.25C275.5 294.6 280.11 294.91 284.71 295.31C286.48 295.46 288.23 295.83 289.99 296.1C283.46 297.14 276.92 298.34 270.89 294.25Z" fill="#550303"/>
<path d="M267.86 234.03C271.41 242.28 270.84 247.92 266.05 252.06C266.65 246.05 267.26 240.04 267.86 234.03Z" fill="#3D0101"/>
<path d="M212.98 302.01C216.65 306.34 220.32 310.67 224 315C218.72 312.04 215.11 307.65 212.98 302.01Z" fill="#C30E0E"/>
<path d="M468.01 283.99C468.99 285.57 471.16 287.65 470.75 288.63C469.22 292.22 466.82 295.45 464.75 298.81C465.78 296.39 467.18 294.05 467.74 291.52C468.27 289.12 467.95 286.51 468.01 283.99Z" fill="#C60E0E"/>
<path d="M564.93 203.68C568.06 201.33 577.56 201.32 580.5 203.73C580.63 203.84 580.28 204.54 580.15 204.96C575.07 204.53 570 204.1 564.93 203.68Z" fill="#C60E0E"/>
<path d="M131.91 309.57C133.87 308.67 135.81 307.7 137.81 306.9C140.94 305.65 144.11 304.51 147.27 303.32C142.15 305.4 137.03 307.49 131.91 309.57Z" fill="#C30E0E"/>
<path d="M405.16 323.02C406.53 317.64 407.91 312.26 409.28 306.88C409.82 307.6 410.99 308.54 410.82 308.99C409.05 313.71 407.07 318.35 405.16 323.02Z" fill="#3D0101"/>
<path d="M573.87 293.07C569.75 290.52 565.41 290.41 560.93 291.96C562.37 290.71 564.5 288.12 565.15 288.45C568.07 289.92 572.75 288.36 573.87 293.07Z" fill="#C60E0E"/>
<path d="M487.02 316.03C490.34 312.68 493.65 309.33 496.97 305.97C493.66 309.32 490.34 312.68 487.02 316.03Z" fill="#C60E0E"/>
<path d="M169.98 286.98C171.2 285.28 172.33 283.51 173.66 281.9C175.38 279.84 175.45 278.4 172.51 277.68C173.33 276.59 174.16 275.5 175.27 274.03C176.95 281.77 176.32 283.17 169.98 286.98Z" fill="#C30E0E"/>
<path d="M452.34 194.02C452.91 189.35 453.49 184.68 454.06 180.01C453.49 184.68 452.91 189.35 452.34 194.02Z" fill="#3D0101"/>
<path d="M221.01 222.01C220.38 221.42 219.17 220.35 219.2 220.31C222.1 216.79 219.26 213.42 218.97 210.02C223.78 213.32 222.52 217.65 221.01 222.01Z" fill="#C30E0E"/>
<path d="M598.08 212.94C603.43 214.33 604.31 215.71 603.18 220.83C602.93 221.96 602.83 223.12 602.66 224.27C602.1 223.33 600.82 221.93 601.09 221.53C603.91 217.23 599.96 215.47 598.08 212.94Z" fill="#C60E0E"/>
<path d="M450.27 272.02C451.23 267.33 452.19 262.64 453.15 257.95C455.5 261.28 454.35 266.88 450.27 272.02Z" fill="#3D0101"/>
<path d="M580.3 206.9C584.19 208.26 588.08 209.62 591.97 210.98C590.49 211.31 588.68 212.35 587.61 211.83C584.98 210.57 582.71 208.59 580.3 206.9Z" fill="#C60E0E"/>
<path d="M338.97 85.8798C334.94 86.4198 330.91 86.9498 326.89 87.4898C330.63 84.8098 334.66 84.2898 338.97 85.8798Z" fill="#3D0101"/>
<path d="M384.11 87.2798C380.41 86.8298 376.71 86.3798 373.01 85.9298C376.96 84.3398 380.7 84.4898 384.11 87.2798Z" fill="#3D0101"/>
<path d="M218.97 210.02C215.98 208.72 212.99 207.42 210 206.12C216.32 203.69 216.49 203.76 218.97 210.02Z" fill="#C30E0E"/>
<path d="M183.99 221C188.21 222.66 190.67 225.58 190.63 230.28C188.42 227.19 186.21 224.1 183.99 221Z" fill="#C30E0E"/>
<path d="M257.91 185.02C258.42 188.72 258.93 192.41 259.44 196.11C257.14 192.66 256.11 189.03 257.91 185.02Z" fill="#3D0101"/>
<path d="M527.31 222.27C528.44 218.07 530.86 215.21 535.35 214.48C532.67 217.08 529.99 219.68 527.31 222.27Z" fill="#C60E0E"/>
<path d="M256.78 167.01C257.06 170.7 257.33 174.4 257.6 178.09C257.33 174.4 257.05 170.71 256.78 167.01Z" fill="#3D0101"/>
<path d="M362.03 342.15C365.44 340.79 368.84 339.42 372.25 338.06C372.32 338.64 372.51 339.72 372.44 339.74C368.98 340.6 365.51 341.37 362.03 342.15Z" fill="#3D0101"/>
<path d="M295.82 296.65C299.67 297.98 303.53 299.31 307.38 300.63C303.53 299.3 299.68 297.98 295.82 296.65Z" fill="#550303"/>
<path d="M584.06 293.11C581.24 295.76 576.78 295.76 573.93 293.12C577.31 293.12 580.69 293.12 584.06 293.11Z" fill="#C60E0E"/>
<path d="M120.17 210.89C123.79 209.94 127.41 208.98 131.03 208.03C128.56 209.53 126.2 211.24 123.58 212.39C122.8 212.72 121.32 211.44 120.17 210.89Z" fill="#C30E0E"/>
<path d="M464.76 298.8C464.36 303.06 462.92 306.46 458 307C460.25 304.27 462.5 301.54 464.76 298.8Z" fill="#C60E0E"/>
<path d="M375.09 335.95C375.6 333.28 376.12 330.6 376.63 327.93C377.04 330.77 377.46 333.61 377.87 336.45C376.94 336.28 376.01 336.12 375.09 335.95Z" fill="#3D0101"/>
<path d="M406.51 299.64C410.04 298.6 413.57 297.55 417.1 296.51C413.57 297.55 410.04 298.6 406.51 299.64Z" fill="#3D0101"/>
<path d="M451.9 141.15C450.33 137.75 448.76 134.34 447.2 130.94C448.76 134.34 450.33 137.75 451.9 141.15Z" fill="#3D0101"/>
<path d="M259.89 200.02C260.48 203.04 261.07 206.06 261.66 209.08C261.07 206.06 260.48 203.04 259.89 200.02Z" fill="#3D0101"/>
<path d="M450.26 207C450.86 203.67 451.47 200.34 452.07 197.01C451.47 200.34 450.86 203.67 450.26 207Z" fill="#3D0101"/>
<path d="M417 100.99C414.23 99.3997 411.45 97.8097 408.68 96.2197C411.45 97.8097 414.22 99.3997 417 100.99Z" fill="#3D0101"/>
<path d="M454.56 166.11C454.57 163.37 454.58 160.63 454.59 157.89C454.58 160.63 454.57 163.37 454.56 166.11Z" fill="#3D0101"/>
<path d="M258.61 257.82C258.89 260.61 259.17 263.39 259.45 266.18C257.42 263.57 255.4 260.96 258.61 257.82Z" fill="#550303"/>
<path d="M396.44 328.54C398.97 327.05 401.49 325.56 404.02 324.07C401.5 325.56 398.97 327.05 396.44 328.54Z" fill="#3D0101"/>
<path d="M260.54 138.89C259.69 141.59 258.84 144.29 257.99 147C258.84 144.3 259.69 141.59 260.54 138.89Z" fill="#3D0101"/>
<path d="M419.05 318.07C417.59 320.96 416.13 323.86 414.67 326.75C416.13 323.86 417.59 320.96 419.05 318.07Z" fill="#C60E0E"/>
<path d="M624.99 213.01C623.66 210.66 622.34 208.32 621.01 205.97C622.34 208.32 623.67 210.67 624.99 213.01Z" fill="#C60E0E"/>
<path d="M443.15 292.05C444.1 289.7 445.06 287.35 446.01 285C447.87 288.49 444.97 290.05 443.15 292.05Z" fill="#3D0101"/>
<path d="M448.33 216.08C448.9 213.72 449.46 211.36 450.03 209C449.46 211.36 448.9 213.72 448.33 216.08Z" fill="#3D0101"/>
<path d="M546.57 290.45C544.54 288.82 542.51 287.18 540.48 285.55C540.67 285.37 540.85 285.18 541.02 284.98C543.04 286.63 545.05 288.28 547.07 289.93C546.9 290.1 546.73 290.27 546.57 290.45Z" fill="#C60E0E"/>
<path d="M172.03 278.09C169.7 279.07 167.37 280.05 165.04 281.03C167.37 280.05 169.7 279.07 172.03 278.09Z" fill="#C30E0E"/>
<path d="M257.41 150.9C257.2 153.93 256.99 156.96 256.77 159.99C256.99 156.96 257.2 153.93 257.41 150.9Z" fill="#3D0101"/>
<path d="M223.99 315C226 316.33 228 317.65 230.01 318.98C228.01 317.66 226 316.33 223.99 315Z" fill="#C30E0E"/>
<path d="M446.37 224.09C446.92 222.06 447.47 220.03 448.02 218C447.47 220.03 446.92 222.06 446.37 224.09Z" fill="#3D0101"/>
<path d="M261.88 211.03C262.4 213.06 262.93 215.09 263.45 217.12C262.93 215.09 262.41 213.06 261.88 211.03Z" fill="#3D0101"/>
<path d="M442.44 239.1C442.97 237.07 443.5 235.04 444.04 233.01C443.5 235.04 442.97 237.07 442.44 239.1Z" fill="#3D0101"/>
<path d="M114.03 213.04C115.52 210.83 116.49 207.22 120.1 210.81C118.08 211.56 116.05 212.3 114.03 213.04Z" fill="#C30E0E"/>
<path d="M454.1 149.98C453.6 147.95 453.1 145.91 452.6 143.88C453.1 145.91 453.6 147.95 454.1 149.98Z" fill="#3D0101"/>
<path d="M591.98 210.97C594.47 207.46 595.98 208.57 596.99 212.03C595.31 211.67 593.65 211.32 591.98 210.97Z" fill="#C60E0E"/>
<path d="M165 291C166.66 289.66 168.32 288.32 169.98 286.98C168.32 288.32 166.66 289.66 165 291Z" fill="#C30E0E"/>
<path d="M169.62 181.12C167.75 180.79 165.88 180.46 164.02 180.13C165.89 180.46 167.76 180.79 169.62 181.12Z" fill="#C30E0E"/>
<path d="M535.4 214.41C537.24 213.25 539.08 212.1 540.92 210.94C539.08 212.1 537.24 213.25 535.4 214.41Z" fill="#C60E0E"/>
<path d="M263.94 220.01C264.44 221.71 264.94 223.41 265.44 225.12C264.95 223.42 264.45 221.71 263.94 220.01Z" fill="#3D0101"/>
<path d="M458 307C456.61 310.46 454.22 308.94 451.99 308.19C454 307.79 456 307.4 458 307Z" fill="#C60E0E"/>
<path d="M324.97 87.8799C322.97 88.5099 320.97 89.1499 318.98 89.7799C320.98 89.1399 322.98 88.5099 324.97 87.8799Z" fill="#3D0101"/>
<path d="M265.82 227.04C266.36 228.73 266.9 230.43 267.43 232.12C266.9 230.43 266.36 228.73 265.82 227.04Z" fill="#3D0101"/>
<path d="M445.06 251.89C444.15 250.23 443.25 248.57 442.34 246.91C443.25 248.57 444.16 250.23 445.06 251.89Z" fill="#3D0101"/>
<path d="M451.04 255.87C449.58 254.99 448.13 254.1 446.67 253.22C448.13 254.1 449.58 254.99 451.04 255.87Z" fill="#3D0101"/>
<path d="M405.12 94.7399C403.32 93.8899 401.51 93.0399 399.71 92.1899C401.51 93.0399 403.31 93.8899 405.12 94.7399Z" fill="#3D0101"/>
<path d="M392.08 89.69C390.39 89.11 388.7 88.53 387.01 87.96C388.7 88.53 390.39 89.11 392.08 89.69Z" fill="#3D0101"/>
<path d="M98.0199 306.98C99.6699 308 101.32 309.02 102.97 310.04C101.32 309.02 99.6699 308 98.0199 306.98Z" fill="#C30E0E"/>
<path d="M523.36 227.29C524.35 225.95 525.33 224.6 526.32 223.26C525.33 224.61 524.35 225.95 523.36 227.29Z" fill="#C60E0E"/>
<path d="M243.03 286.04C244.03 284.7 245.04 283.37 246.04 282.03C245.04 283.37 244.04 284.7 243.03 286.04Z" fill="#C30E0E"/>
<path d="M444.69 230.13C445.13 228.76 445.58 227.38 446.02 226.01C445.58 227.38 445.13 228.75 444.69 230.13Z" fill="#3D0101"/>
<path d="M266.06 252.05C264.7 253.02 263.34 253.98 261.98 254.95C263.34 253.98 264.7 253.01 266.06 252.05Z" fill="#3D0101"/>
<path d="M380.01 336.07C381.36 335.47 382.71 334.86 384.07 334.26C382.72 334.86 381.37 335.47 380.01 336.07Z" fill="#3D0101"/>
<path d="M438.85 119.25C437.89 118.18 436.94 117.1 435.98 116.03C436.93 117.1 437.89 118.17 438.85 119.25Z" fill="#3D0101"/>
<path d="M431.96 112.06C430.83 111.14 429.7 110.22 428.57 109.3C429.7 110.22 430.83 111.14 431.96 112.06Z" fill="#3D0101"/>
<path d="M156.22 297.28C157.65 296.27 159.09 295.26 160.52 294.24C159.08 295.26 157.65 296.27 156.22 297.28Z" fill="#C30E0E"/>
<path d="M285.36 107.24C284.24 108.17 283.13 109.09 282.01 110.02C283.13 109.09 284.25 108.17 285.36 107.24Z" fill="#3D0101"/>
<path d="M302.06 309.93C302.63 311.64 303.2 313.35 303.77 315.06C303.2 313.35 302.63 311.64 302.06 309.93Z" fill="#550303"/>
<path d="M427.04 107.94C425.88 107.07 424.71 106.19 423.55 105.32C424.71 106.19 425.88 107.06 427.04 107.94Z" fill="#3D0101"/>
<path d="M508.97 199.96C507.97 200.97 506.97 201.97 505.97 202.98C506.97 201.98 507.97 200.97 508.97 199.96Z" fill="#C60E0E"/>
<path d="M74.35 291.91C74.89 293.28 75.43 294.65 75.98 296.02C75.44 294.65 74.9 293.28 74.35 291.91Z" fill="#C30E0E"/>
<path d="M436 295.99C437.03 295.73 438.07 295.47 439.1 295.21C438.06 295.47 437.03 295.73 436 295.99Z" fill="#3D0101"/>
<path d="M266.13 286.86C266.71 288.26 267.29 289.66 267.87 291.06C267.29 289.66 266.71 288.26 266.13 286.86Z" fill="#550303"/>
<path d="M262.82 133.95C262.28 135.06 261.75 136.18 261.21 137.29C261.74 136.17 262.28 135.06 262.82 133.95Z" fill="#3D0101"/>
<path d="M264.16 280.83C264.6 281.94 265.05 283.06 265.49 284.17C265.04 283.06 264.6 281.95 264.16 280.83Z" fill="#550303"/>
<path d="M312.18 92.1201C311.09 92.6401 310.01 93.1601 308.92 93.6801C310 93.1601 311.09 92.6401 312.18 92.1201Z" fill="#3D0101"/>
<path d="M397.11 91.5201C396.03 91.0401 394.94 90.5701 393.86 90.1001C394.94 90.5701 396.03 91.0501 397.11 91.5201Z" fill="#3D0101"/>
<path d="M304.19 316.81C304.64 317.93 305.09 319.05 305.54 320.17C305.09 319.04 304.64 317.92 304.19 316.81Z" fill="#550303"/>
<path d="M448.48 277.11C448.94 276.01 449.4 274.91 449.86 273.81C449.4 274.9 448.94 276 448.48 277.11Z" fill="#3D0101"/>
<path d="M262.15 274.84C262.58 275.95 263.01 277.07 263.45 278.18C263.01 277.07 262.58 275.95 262.15 274.84Z" fill="#550303"/>
<path d="M147.26 303.32C148.32 302.64 149.38 301.96 150.44 301.28C149.38 301.96 148.32 302.64 147.26 303.32Z" fill="#C30E0E"/>
<path d="M420.02 102.96C419.02 102.31 418.02 101.66 417.02 101C418.02 101.65 419.02 102.3 420.02 102.96Z" fill="#3D0101"/>
<path d="M446.52 283.11C446.89 282.24 447.26 281.38 447.63 280.51C447.26 281.38 446.89 282.24 446.52 283.11Z" fill="#3D0101"/>
<path d="M604.71 280.72C604.05 281.39 603.4 282.06 602.74 282.73C603.39 282.06 604.05 281.39 604.71 280.72Z" fill="#C60E0E"/>
<path d="M273.88 117.95C273.26 118.64 272.63 119.33 272.01 120.01C272.63 119.32 273.25 118.63 273.88 117.95Z" fill="#3D0101"/>
<path d="M323.96 332.1C324.74 332.64 325.52 333.19 326.3 333.73C325.52 333.19 324.74 332.65 323.96 332.1Z" fill="#550303"/>
<path d="M272.01 120.01C271.39 120.75 270.77 121.49 270.15 122.23C270.77 121.49 271.39 120.75 272.01 120.01Z" fill="#3D0101"/>
<path d="M435.97 116.02C435.3 115.35 434.64 114.68 433.97 114.01C434.64 114.69 435.31 115.35 435.97 116.02Z" fill="#3D0101"/>
<path d="M153.97 298.95C154.73 298.39 155.49 297.83 156.25 297.27C155.49 297.83 154.73 298.39 153.97 298.95Z" fill="#C30E0E"/>
<path d="M150.98 300.98C151.8 300.42 152.63 299.85 153.45 299.29C152.63 299.86 151.8 300.42 150.98 300.98Z" fill="#C30E0E"/>
<path d="M260.36 269.64C260.72 270.49 261.08 271.34 261.44 272.19C261.08 271.34 260.72 270.49 260.36 269.64Z" fill="#550303"/>
<path d="M165.03 281.04C164.26 281.57 163.48 282.11 162.71 282.64C163.48 282.11 164.26 281.58 165.03 281.04Z" fill="#C30E0E"/>
<path d="M409.12 306.74C408.42 306.47 407.71 306.2 407.01 305.93C407.72 306.2 408.42 306.47 409.12 306.74Z" fill="#3D0101"/>
<path d="M505.02 204.02C504.38 204.7 503.75 205.38 503.11 206.06C503.74 205.38 504.38 204.7 505.02 204.02Z" fill="#C60E0E"/>
<path d="M182.03 218.98C182.69 219.66 183.34 220.33 184 221.01C183.34 220.33 182.69 219.65 182.03 218.98Z" fill="#C30E0E"/>
<path d="M110 283C109.33 282.33 108.67 281.65 108 280.98C108.67 281.65 109.34 282.33 110 283Z" fill="#C30E0E"/>
<path d="M540.48 285.55C539.8 284.87 539.13 284.19 538.45 283.51C538.64 283.32 538.83 283.15 539.03 282.98C539.69 283.65 540.35 284.32 541.01 284.99C540.85 285.18 540.67 285.37 540.48 285.55Z" fill="#C60E0E"/>
<path d="M306.16 322.76C306.7 323.22 307.24 323.67 307.77 324.13C307.24 323.68 306.7 323.22 306.16 322.76Z" fill="#550303"/>
<path d="M252.29 305.77C251.86 305.18 251.43 304.58 251 303.99C251.43 304.58 251.86 305.18 252.29 305.77Z" fill="#C30E0E"/>
<path d="M246.03 282.04C246.47 281.45 246.9 280.87 247.34 280.28C246.91 280.87 246.47 281.46 246.03 282.04Z" fill="#C30E0E"/>
<path d="M303.34 306.26C302.86 306.79 302.38 307.32 301.91 307.85C302.39 307.32 302.86 306.79 303.34 306.26Z" fill="#550303"/>
<path d="M453.07 257.83C452.84 257.54 452.61 257.25 452.39 256.96C452.62 257.25 452.84 257.54 453.07 257.83Z" fill="#3D0101"/>
<path d="M505.98 202.97C505.66 203.32 505.34 203.66 505.02 204.01C505.34 203.67 505.66 203.32 505.98 202.97Z" fill="#C60E0E"/>
<path d="M510.02 199.05C509.67 199.36 509.31 199.67 508.96 199.98C509.31 199.67 509.67 199.36 510.02 199.05Z" fill="#C60E0E"/>
<path d="M446.03 128.94C445.79 128.61 445.55 128.28 445.31 127.96C445.55 128.29 445.79 128.62 446.03 128.94Z" fill="#3D0101"/>
<path d="M266.84 126.98C266.57 127.34 266.31 127.71 266.04 128.07C266.3 127.7 266.57 127.34 266.84 126.98Z" fill="#3D0101"/>
<path d="M268.89 123.98C268.61 124.36 268.34 124.73 268.06 125.11C268.34 124.73 268.61 124.36 268.89 123.98Z" fill="#3D0101"/>
<path d="M547.68 291.35C547.31 291.05 546.94 290.75 546.57 290.45C546.73 290.28 546.9 290.1 547.07 289.93C547.42 290.24 547.77 290.54 548.12 290.85C547.97 291.02 547.83 291.18 547.68 291.35Z" fill="#C60E0E"/>
<path d="M267.91 291.15C268.1 291.48 268.3 291.81 268.49 292.13C268.29 291.81 268.1 291.48 267.91 291.15Z" fill="#550303"/>
<path d="M259.4 256.87C259.21 257.1 259.03 257.33 258.84 257.56C258.91 257.23 259.1 257 259.4 256.87Z" fill="#550303"/>
<path d="M405.94 95.1901C405.74 95.0801 405.53 94.9801 405.33 94.8701C405.58 94.9001 405.78 95.0001 405.94 95.1901Z" fill="#3D0101"/>
<path d="M308 94C307.66 94.16 307.32 94.33 306.98 94.49C307.32 94.32 307.66 94.16 308 94Z" fill="#3D0101"/>
<path d="M428.03 108.86C427.71 108.56 427.39 108.26 427.07 107.96C427.39 108.26 427.71 108.56 428.03 108.86Z" fill="#3D0101"/>
<path d="M308.95 324.8C309.15 324.92 309.34 325.03 309.53 325.15C309.28 325.14 309.08 325.02 308.95 324.8Z" fill="#550303"/>
<path d="M291.58 102.93C291.38 103.07 291.18 103.22 290.98 103.36C291.11 103.12 291.31 102.98 291.58 102.93Z" fill="#3D0101"/>
<path d="M296.06 100.03C295.7 100.28 295.34 100.52 294.97 100.77C295.33 100.52 295.69 100.28 296.06 100.03Z" fill="#3D0101"/>
<path d="M526.29 223.27C526.62 222.93 526.94 222.59 527.27 222.25C526.94 222.6 526.61 222.94 526.29 223.27Z" fill="#C60E0E"/>
<path d="M311.9 326.5C312.22 326.69 312.55 326.88 312.87 327.07C312.55 326.88 312.23 326.69 311.9 326.5Z" fill="#550303"/>
<path d="M315.91 328.66C316.17 328.82 316.43 328.98 316.68 329.14C316.34 329.12 316.08 328.96 315.91 328.66Z" fill="#550303"/>
<path d="M287.02 106.01C286.67 106.28 286.32 106.55 285.97 106.81C286.32 106.55 286.67 106.28 287.02 106.01Z" fill="#3D0101"/>
<path d="M260.69 255.88C260.42 256.05 260.14 256.23 259.87 256.4C260.15 256.23 260.42 256.05 260.69 255.88Z" fill="#550303"/>
<path d="M307.99 301.02C308.32 301.35 308.65 301.68 308.99 302C308.65 301.68 308.32 301.35 307.99 301.02Z" fill="#550303"/>
<path d="M327.92 334.26C328.27 334.51 328.62 334.76 328.97 335.01C328.63 334.76 328.28 334.51 327.92 334.26Z" fill="#550303"/>
<path d="M268.85 292.52C269.06 292.72 269.27 292.93 269.47 293.13C269.16 293.04 268.95 292.83 268.85 292.52Z" fill="#550303"/>
<path d="M181.03 217.98C181.36 218.31 181.69 218.64 182.02 218.97C181.69 218.64 181.36 218.31 181.03 217.98Z" fill="#C30E0E"/>
<path d="M341.09 339.7C341.37 339.81 341.65 339.92 341.93 340.03C341.61 340.04 341.33 339.93 341.09 339.7Z" fill="#290101"/>
<path d="M358.06 341.93C358.31 342.19 358.56 342.46 358.81 342.72C358.56 342.46 358.31 342.2 358.06 341.93Z" fill="#3D0101"/>
<path d="M596.97 212.02C597.33 212.32 597.69 212.62 598.04 212.92C597.69 212.61 597.33 212.31 596.97 212.02Z" fill="#C60E0E"/>
<path d="M439.27 295.11C439.51 294.97 439.75 294.82 439.99 294.68C439.82 294.94 439.58 295.08 439.27 295.11Z" fill="#3D0101"/>
<path d="M111.01 284C110.67 283.66 110.33 283.33 110 282.99C110.34 283.33 110.68 283.67 111.01 284Z" fill="#C30E0E"/>
<path d="M384.97 333.98C385.32 333.8 385.68 333.61 386.03 333.43C385.67 333.62 385.32 333.8 384.97 333.98Z" fill="#3D0101"/>
<path d="M429.65 246.13C431.76 253.05 426.67 256.47 420.62 260.03C410.45 266.02 400.58 266.29 390.48 260.37C384.76 257.02 379 253.73 373.44 250.12C370.73 248.36 369.43 245.23 372.62 243.14C383.57 235.96 394.03 227.38 407.44 225.47C412.21 224.79 417.72 226.09 422.29 227.96C428.54 230.5 429.66 234.35 429.65 246.13Z" fill="#080000"/>
<path d="M282.6 244.42C282.94 228.4 294.18 220.47 310.24 226.71C320.5 230.69 329.79 237.22 339.37 242.85C342.65 244.78 342.16 247.58 339.41 249.77C330.45 256.91 320.61 262.82 309.28 264.62C299.19 266.22 290.94 260.52 284 253.94C282.18 252.21 283 247.67 282.6 244.42Z" fill="#080000"/>
<path d="M373.63 289.87C371.62 292.3 369.98 295.24 367.5 297.03C364.33 299.32 362.57 296.1 360.65 294.08C357.75 291.03 354.4 290.54 351.65 293.92C349.14 297 346.59 298.12 343.11 296.06C339.09 293.68 337.76 289.79 339.36 285.75C342.17 278.66 345.61 271.82 348.93 264.94C350.15 262.4 351.73 260.03 353.25 257.65C354.57 255.59 356.67 254.72 357.93 257.21C363 267.27 367.76 277.49 372.6 287.67C372.8 288.09 372.73 288.65 372.78 289.14C373.06 289.39 373.35 289.63 373.63 289.87Z" fill="#0D0101"/>
<path d="M376.6 323.09C375.19 323.09 373.77 323.08 372.36 323.08C372.99 322.09 373.62 321.11 374.25 320.12C375.04 321.12 375.82 322.11 376.6 323.09Z" fill="#3D0101"/>
<path d="M548.11 290.85C547.76 290.54 547.41 290.24 547.06 289.93C545.04 288.28 543.03 286.63 541.01 284.98C540.35 284.31 539.69 283.64 539.03 282.97C538.79 281.88 538.55 280.78 538.3 279.62C546.8 280.74 549.02 282.45 549.66 288.59C549.73 289.28 548.66 290.1 548.11 290.85Z" fill="#F80304"/>
</svg>
